<svg version="1.1" id="Layer_1" xmlns="http://www.w3.org/2000/svg" xmlns:xlink="http://www.w3.org/1999/xlink" x="0px" y="0px"
	 width="100%" viewBox="0 0 1024 1024" enable-background="new 0 0 1024 1024" xml:space="preserve">
<path fill="#FFFFFF" opacity="1.000000" stroke="none" 
	d="
M951.000000,1025.000000 
	C635.500000,1025.000000 320.500000,1024.992310 5.500030,1025.093262 
	C1.750887,1025.094360 0.905801,1024.249146 0.906913,1020.500000 
	C1.007246,682.166687 1.007246,343.833344 0.906913,5.500028 
	C0.905801,1.750903 1.750902,0.905800 5.500028,0.906912 
	C343.833344,1.007255 682.166687,1.007255 1020.500000,0.906912 
	C1024.249146,0.905800 1025.094360,1.750902 1025.093262,5.500027 
	C1024.992920,343.833344 1024.992798,682.166687 1025.093140,1020.500000 
	C1025.094238,1024.249146 1024.254272,1025.133667 1020.499146,1025.100708 
	C997.500854,1024.899658 974.500000,1025.000000 951.000000,1025.000000 
z"/>
<path fill="#8EAF40" opacity="1.000000" stroke="none" 
	d="
M723.002441,552.622681 
	C723.014832,555.038147 723.016968,557.078552 722.981201,559.554810 
	C722.947754,560.595093 722.764038,561.131226 722.127441,561.758789 
	C720.041077,563.343323 717.882812,562.886719 715.405640,562.949097 
	C714.450867,562.973938 713.906311,562.915649 713.109070,562.683472 
	C712.423340,562.506470 712.005066,562.393494 711.259888,562.295044 
	C710.352051,562.078735 709.841553,561.744263 709.333069,560.984863 
	C708.836853,559.685059 708.426086,558.681335 707.857788,557.392090 
	C707.337891,556.396606 706.854492,555.761658 706.498779,554.788330 
	C706.355164,553.890442 706.157227,553.285339 705.814453,552.396301 
	C705.327454,551.397522 704.853333,550.763123 704.482849,549.799072 
	C704.303284,548.903442 704.080688,548.300415 703.698730,547.417786 
	C703.279602,546.403564 702.850525,545.761658 702.447144,544.824829 
	C700.992432,540.942749 699.522949,537.349609 697.879883,533.430298 
	C697.341431,532.396606 696.854126,531.766113 696.484863,530.795715 
	C696.019592,529.238708 695.509399,527.975830 694.832520,526.414185 
	C694.346558,525.405457 693.857666,524.804443 693.387756,523.884521 
	C692.269043,521.293884 691.179993,518.991028 689.898132,516.396973 
	C689.208496,515.255127 688.838745,514.340332 688.160156,513.269897 
	C687.947144,513.065857 688.000122,513.002625 687.967651,513.027832 
	C685.905701,511.427185 683.501709,512.189026 681.245789,511.999817 
	C677.808899,511.711639 676.473022,513.500305 676.465027,516.717957 
	C676.447815,523.658020 677.712769,530.517883 677.727539,537.457214 
	C677.730347,538.766357 678.123047,540.076050 677.472473,541.748413 
	C677.238892,547.109619 677.192322,552.099976 677.151367,557.558289 
	C676.627197,560.417786 675.066528,562.076477 672.890930,563.560730 
	C672.206970,563.632996 671.867615,563.687683 671.274658,563.788635 
	C670.457214,563.913269 669.909912,563.863403 669.125244,563.528076 
	C668.138855,562.707336 667.414185,561.983398 666.471313,561.038208 
	C663.491333,559.246826 662.855103,556.679443 662.903503,553.398315 
	C662.699951,550.953064 662.539978,548.879761 662.351868,546.421082 
	C661.886475,544.777527 662.191895,543.359619 661.518921,541.827271 
	C661.463806,540.253357 661.379150,539.010803 661.246704,537.395874 
	C661.115356,536.580872 661.037170,536.137146 660.906433,535.359619 
	C660.797546,534.599976 660.746277,534.173340 660.565186,533.450439 
	C660.152710,532.341370 659.989136,531.507690 659.979370,530.324707 
	C659.859558,529.282898 659.753967,528.560791 659.518433,527.496887 
	C659.134705,526.333679 658.987915,525.496826 659.031372,524.313477 
	C658.950684,523.270996 658.864197,522.548523 658.653320,521.483276 
	C658.187866,520.345581 657.988464,519.519348 657.956665,518.331177 
	C657.842407,517.288330 657.752014,516.565247 657.544189,515.496643 
	C657.142761,514.340759 656.998901,513.505432 656.958069,512.329468 
	C656.723145,509.584778 655.060974,508.544708 652.660889,507.819153 
	C651.075745,507.514954 650.942139,506.326355 650.192871,505.253967 
	C648.939758,503.914001 647.889648,502.810974 646.664795,501.428345 
	C646.204773,500.340881 646.050537,499.519379 646.344482,498.256134 
	C647.093018,495.164978 648.909485,493.885132 651.852295,493.403473 
	C652.425293,492.686829 652.815857,492.204620 652.988342,491.299377 
	C652.921448,490.574463 652.826294,490.152069 652.571838,489.444946 
	C652.286865,488.623077 652.080566,488.106934 651.964844,487.284698 
	C651.835327,486.286865 651.737793,485.563293 651.506958,484.498779 
	C651.257751,483.621399 651.077454,483.098694 651.018250,482.273071 
	C651.079895,480.063782 650.301086,478.029907 651.596130,476.235870 
	C653.025146,474.256104 652.271057,472.516418 650.870850,470.457214 
	C649.788757,468.020966 649.789307,465.903259 650.735107,463.382324 
	C655.035889,458.646606 660.106384,459.454376 664.953552,460.616302 
	C677.160889,463.542480 688.403076,468.882996 699.092590,475.347229 
	C705.194153,479.036987 711.048462,483.135590 717.315369,487.184143 
	C718.505371,487.382690 718.967285,488.096497 719.769409,488.822906 
	C720.105103,489.339600 720.299500,489.585754 720.759766,489.902893 
	C721.790039,490.660950 722.127747,491.623535 722.833618,492.686401 
	C724.372620,493.956024 725.682739,495.032867 727.283691,496.236084 
	C729.063049,496.568909 729.668579,497.858673 730.571777,499.128601 
	C730.766296,500.069244 730.949829,500.678040 731.235046,501.588348 
	C731.894104,502.979584 732.045654,504.113129 731.543945,505.709106 
	C731.267456,506.835999 731.151855,507.553619 731.009399,508.634216 
	C730.966736,509.592133 730.790100,510.130127 730.208069,510.799133 
	C729.777283,511.240845 729.563232,511.489166 729.208862,511.940674 
	C726.856995,513.875122 724.415955,514.444885 721.305176,513.440063 
	C719.870850,513.157349 718.825623,513.071594 717.387024,513.010986 
	C714.197327,512.959534 711.400452,513.012878 708.603943,512.996460 
	C705.807373,512.980042 705.659119,514.442139 706.722168,516.850647 
	C707.505920,518.255615 708.145081,519.343811 708.986206,520.678040 
	C709.597595,521.595703 710.132385,522.174988 710.617981,523.107849 
	C711.667786,525.402893 712.683044,527.406067 713.894104,529.685303 
	C714.611877,530.591675 715.127869,531.226318 715.464417,532.229614 
	C716.561035,535.108093 717.738342,537.690857 719.085205,540.589478 
	C720.970398,544.531250 722.326477,548.275635 723.002441,552.622681 
z"/>
<path fill="#8EAF42" opacity="1.000000" stroke="none" 
	d="
M508.133972,532.280090 
	C511.211273,539.328613 514.513977,545.731323 522.243347,547.948181 
	C536.095520,551.921326 549.578613,541.803894 550.380737,526.934814 
	C550.633545,522.248718 550.376831,517.619446 548.935730,513.108643 
	C547.457275,508.480621 548.873291,504.819183 553.005005,502.450562 
	C557.358093,499.955048 560.935059,501.605560 564.103333,505.014343 
	C565.880493,506.926300 566.887634,509.167664 567.488708,511.602875 
	C570.771973,524.905884 565.958801,549.860901 547.788452,559.096558 
	C519.221558,573.616577 492.751099,552.567627 489.394592,528.962830 
	C485.872223,504.191772 497.069794,486.211029 516.428894,472.316833 
	C520.725342,469.233185 524.922180,465.828674 530.258850,464.478760 
	C537.887146,462.549164 541.823669,465.155609 541.585510,472.930389 
	C541.100159,488.775757 542.189514,504.570709 542.471008,520.389221 
	C542.526611,523.510315 542.229309,526.638855 542.062317,529.762268 
	C541.937256,532.099365 540.299927,532.267334 538.503601,532.163452 
	C533.949829,531.900208 530.096130,528.630066 529.308350,523.080811 
	C527.692749,511.699951 527.401550,500.209595 527.619568,488.712311 
	C527.654907,486.849213 528.954712,484.273956 526.727234,483.335785 
	C524.692627,482.478821 523.211914,484.782135 521.854980,486.140015 
	C509.092957,498.910919 502.971344,513.726624 508.133972,532.280090 
z"/>
<path fill="#8DAE3F" opacity="1.000000" stroke="none" 
	d="
M602.625244,462.098267 
	C602.955139,461.526306 603.166809,461.284729 603.616577,460.938782 
	C607.273560,458.087402 610.796448,457.199280 614.764343,460.684937 
	C615.490173,461.313599 615.912231,461.690369 616.547241,462.254028 
	C623.227478,464.312866 624.949463,469.250427 625.061890,475.624634 
	C625.118103,476.706207 625.145447,477.409729 625.186646,478.464935 
	C626.655701,484.586243 629.326843,490.089111 629.042969,496.623230 
	C629.143860,498.639618 629.225342,500.277222 629.335327,502.322327 
	C630.381775,505.704926 633.700012,505.651794 635.892212,507.630554 
	C636.716553,508.340637 637.247864,508.886688 637.924744,509.680542 
	C640.884705,514.497498 640.960083,518.853149 637.086670,522.922668 
	C635.938721,524.128662 634.952515,525.432312 635.082153,527.619995 
	C635.157349,528.390503 635.206177,528.778442 635.292969,529.457153 
	C636.078247,531.873840 636.727356,534.025940 637.118774,536.633240 
	C637.216858,537.387573 637.257568,537.770508 637.334717,538.439819 
	C637.689697,539.571777 638.032776,540.410889 638.104797,541.669250 
	C638.196899,542.390686 638.239868,542.776855 638.314148,543.452759 
	C639.550293,548.300781 639.905518,553.014648 640.896667,557.616516 
	C641.524780,560.532654 640.150085,563.019287 638.319458,565.710999 
	C638.053772,566.052551 638.000000,566.000000 638.025513,566.027466 
	C635.784973,567.612061 633.685181,566.975403 631.305908,565.298828 
	C630.211426,564.003479 629.454712,562.978271 628.566650,561.658081 
	C625.878601,556.989807 623.789062,552.424438 622.570496,547.110535 
	C622.070618,545.729309 621.709229,544.681213 621.328613,543.301758 
	C621.003967,541.043640 620.525085,539.164246 619.688843,537.045898 
	C619.507629,536.345886 619.416016,535.957825 619.302612,535.270752 
	C619.204285,534.648926 619.145386,534.323059 619.091064,533.996460 
	C617.791870,526.185303 612.607788,523.510315 605.144287,526.681396 
	C602.233398,527.918213 600.956360,530.035583 600.377625,533.074890 
	C598.892761,540.873596 597.824707,548.751465 595.963074,556.479858 
	C595.454529,558.591248 594.886230,560.649658 593.210388,562.649231 
	C592.861511,563.255432 592.699158,563.533630 592.248169,563.903198 
	C589.857605,565.996399 587.304443,566.331299 584.117615,565.584900 
	C582.942261,565.108765 582.190247,564.772339 581.229614,564.205078 
	C579.447876,562.527527 578.124817,560.934387 577.853882,558.342529 
	C577.781128,556.611694 577.776733,555.223145 577.802307,553.418884 
	C577.988647,552.212585 577.996033,551.401062 578.250488,550.322144 
	C578.374268,549.635803 578.415405,549.240051 578.528687,548.554565 
	C579.181824,546.783386 578.875793,545.189941 579.275085,543.354980 
	C579.403992,542.640869 579.439087,542.245544 579.558105,541.564331 
	C580.200562,538.748535 581.281799,536.323486 581.257874,533.344238 
	C581.376953,532.633728 581.408203,532.238159 581.528076,531.557495 
	C582.739868,528.294250 581.180115,527.028076 578.293884,526.204956 
	C576.723938,524.894104 575.400391,523.829529 573.922791,522.484131 
	C570.635132,515.117432 573.679565,508.371918 581.398499,505.407440 
	C583.075134,504.763458 584.929016,504.612244 586.817261,503.412720 
	C587.211182,503.038971 587.280151,502.882660 587.458496,502.494568 
	C587.876221,501.424377 588.000671,500.546722 588.192566,499.343445 
	C588.330139,498.627380 588.396606,498.236145 588.564819,497.564972 
	C588.760803,496.703796 588.965515,496.151276 589.186890,495.300018 
	C589.311768,494.622650 589.359192,494.228241 589.491211,493.548004 
	C589.769104,492.600433 590.043213,491.970459 590.415405,491.012939 
	C590.585632,490.308289 590.670410,489.936188 590.817383,489.284668 
	C592.403870,483.702423 593.968811,478.413666 596.415588,473.032684 
	C596.783142,472.071716 597.031494,471.467560 597.425537,470.571167 
	C598.900391,467.462433 600.094543,464.562164 602.625244,462.098267 
z"/>
<path fill="#8EAF40" opacity="1.000000" stroke="none" 
	d="
M264.649597,469.164246 
	C265.513855,467.885040 266.227814,466.849518 267.056000,465.521973 
	C267.459808,464.478729 268.084320,463.989044 268.804443,463.208405 
	C269.253784,462.802582 269.478943,462.584290 269.844666,462.174438 
	C270.389923,461.631012 270.849121,461.397766 271.765900,461.330139 
	C272.305542,461.471558 272.454163,461.578491 272.842773,461.819031 
	C274.737915,464.308929 273.070618,466.088867 271.871338,467.755219 
	C267.525452,473.793762 263.316284,479.919922 259.490417,486.312378 
	C263.917053,480.153015 267.701263,473.538788 272.506561,467.647644 
	C273.752106,466.120697 274.718597,464.323883 276.927856,463.313171 
	C281.023590,460.496246 284.955200,459.930786 288.731140,462.940765 
	C292.523529,465.963898 291.907806,469.957367 290.380768,473.877533 
	C287.266022,481.873596 281.546021,488.286682 277.049561,495.441620 
	C275.073883,498.585449 273.446228,501.311310 274.304199,505.481567 
	C275.181213,509.744202 272.524963,513.689209 268.566345,514.884888 
	C264.658691,516.065247 262.896576,518.519165 261.259247,521.607117 
	C254.801636,533.786011 248.472778,546.035095 241.858841,558.128296 
	C237.968842,565.240967 228.832855,566.035339 223.953430,560.055908 
	C223.096207,559.005432 223.124710,557.967407 223.063171,556.453613 
	C225.458420,549.370178 227.774902,542.626343 231.676529,536.328186 
	C230.551605,536.082458 229.316101,536.906433 228.692200,535.308838 
	C231.295288,525.913025 236.640915,518.210999 241.020447,510.046997 
	C242.640366,507.027313 242.175735,505.460144 239.189423,503.740723 
	C228.549423,497.614563 218.134262,491.097260 207.481384,484.994385 
	C201.435074,481.530579 200.725708,475.944397 200.902695,470.044556 
	C200.988876,467.170746 202.828827,465.160156 206.102066,465.079620 
	C208.639999,465.017212 211.010406,465.522614 213.364716,466.511627 
	C225.632217,471.664856 237.751617,477.148041 248.947128,484.374817 
	C252.617859,486.744324 254.334076,486.029053 256.098419,482.403076 
	C257.395630,479.737091 259.319641,477.376129 261.080414,474.568176 
	C261.441681,473.500336 262.061951,473.011780 262.683716,472.171448 
	C262.847534,471.935730 263.083252,471.633911 263.146362,471.453125 
	C263.432892,470.507996 264.056213,470.020325 264.649597,469.164246 
z"/>
<path fill="#8DAE40" opacity="1.000000" stroke="none" 
	d="
M772.451782,499.017395 
	C773.182068,486.835602 772.603149,489.146729 763.630493,488.896545 
	C761.301514,488.831543 758.962891,488.702728 756.641846,488.834900 
	C747.209961,489.372009 741.584473,483.662811 736.992432,476.629211 
	C734.397766,472.654938 736.645447,466.604889 741.284363,465.740845 
	C746.227112,464.820190 750.905701,462.868347 756.190002,463.037079 
	C776.829712,463.695984 797.437805,462.766571 818.000061,460.806061 
	C819.834351,460.631195 822.688904,459.198364 823.402527,461.422302 
	C824.436707,464.645111 827.504333,468.038849 824.680481,471.653107 
	C823.282043,473.442932 822.613892,475.325897 822.013428,477.421570 
	C820.928223,481.208984 818.008301,482.941498 814.296143,483.594604 
	C808.565125,484.602905 802.863098,485.813019 797.102905,486.603516 
	C793.664307,487.075409 792.269104,488.452240 792.304688,492.060516 
	C792.498047,511.694672 791.910706,531.335083 792.922119,550.964844 
	C793.039001,553.233582 792.536194,555.599609 791.927307,557.812195 
	C791.632874,558.881836 791.315247,561.844971 788.975952,558.750061 
	C787.799866,557.194031 787.752930,559.407410 787.368408,559.963318 
	C783.625427,565.374573 776.854370,564.987488 773.762085,559.017273 
	C772.144348,555.893982 771.496460,552.465454 771.345764,548.903503 
	C770.648438,532.411926 771.764771,515.965942 772.451782,499.017395 
z"/>
<path fill="#8EAF40" opacity="1.000000" stroke="none" 
	d="
M343.901001,486.913971 
	C348.137543,504.701416 349.089355,522.150024 345.129456,539.740356 
	C343.335358,547.709839 339.126770,554.146973 333.101776,559.407349 
	C323.222900,568.032410 304.952271,564.591309 297.894531,552.766663 
	C290.284515,540.016663 289.601837,525.940002 290.729095,511.665833 
	C291.796051,498.155182 295.778259,485.416077 303.732544,474.433105 
	C307.531647,469.187378 312.697144,464.528992 319.680878,463.440765 
	C324.663879,462.664307 328.544373,463.595764 333.012482,467.536255 
	C339.161041,472.958740 341.093536,479.719086 343.901001,486.913971 
z"/>
<path fill="#8EAF40" opacity="1.000000" stroke="none" 
	d="
M479.205414,549.248657 
	C473.365143,558.146545 466.652679,564.317505 455.161957,563.950439 
	C445.899811,563.654602 439.583618,559.631836 435.171143,552.150452 
	C427.511719,539.163940 427.420563,524.817505 428.573303,510.409424 
	C429.531708,498.430359 432.982513,486.971344 439.682373,477.084747 
	C444.906860,469.375305 451.524963,462.395630 462.393402,463.032654 
	C464.266174,463.142395 466.129120,463.192902 467.511688,464.584686 
	C472.477081,469.583374 477.733307,474.152679 479.894104,481.472076 
	C486.012604,502.197693 487.773987,522.920227 481.524841,543.901855 
	C481.008362,545.636047 480.102264,547.254272 479.205414,549.248657 
z"/>
<path fill="#8EAF40" opacity="1.000000" stroke="none" 
	d="
M378.957764,483.657104 
	C379.032715,485.649475 379.119080,487.301025 379.247925,489.362946 
	C380.372711,491.818115 379.877319,494.033539 379.974091,496.591431 
	C380.041962,498.327728 380.119629,499.656433 380.237427,501.382141 
	C380.911865,502.864410 381.030975,504.051849 380.958496,505.636169 
	C381.039337,508.970154 381.132568,511.942749 381.237946,515.356445 
	C382.209869,517.451599 382.103516,519.292847 381.964203,521.059204 
	C381.512085,526.792542 382.717743,532.413025 382.945312,538.544983 
	C383.923615,542.922180 386.802917,540.517395 389.289734,540.651550 
	C390.553162,540.298096 391.402313,539.960999 392.665771,539.969788 
	C393.985077,539.840454 394.965912,539.730957 396.310913,539.557495 
	C397.546844,539.290100 398.397430,538.953674 399.656128,539.104126 
	C404.904144,539.069458 409.816345,538.992920 414.728790,538.939880 
	C418.153442,538.902893 421.170959,539.927185 423.825226,542.709290 
	C425.205597,544.210144 424.928528,545.767578 425.039612,547.615723 
	C425.266174,550.210510 427.560516,551.782471 427.010742,554.621948 
	C426.984436,555.583923 426.819977,556.120422 426.311890,556.829163 
	C425.328674,557.727417 424.508514,558.391846 423.402405,559.200195 
	C416.103180,561.323364 408.942963,560.331665 401.835022,560.396606 
	C399.842773,560.414795 397.848389,560.342651 395.434601,560.643311 
	C394.465118,560.922119 393.911011,561.050842 392.940735,561.182983 
	C390.730957,561.381592 388.906158,561.178833 386.757080,561.659180 
	C385.924469,561.890076 385.444214,561.984314 384.607117,562.103210 
	C383.118469,562.260437 381.963257,562.210938 380.537170,562.665649 
	C379.143066,563.127991 378.175659,563.687622 376.936951,564.483154 
	C375.910187,564.820740 375.218903,564.785828 374.271851,564.239258 
	C371.566559,563.841248 369.130554,563.583252 366.486084,564.876404 
	C365.460876,564.451416 364.935364,563.908203 364.120789,563.273560 
	C363.218292,562.351379 362.547363,561.590027 361.776245,560.536743 
	C360.616638,557.840454 361.028412,555.334412 361.281311,552.446899 
	C360.782166,545.627686 362.303131,539.196594 361.310120,532.371399 
	C360.979675,530.887817 361.026367,529.771118 360.972717,528.330750 
	C360.842163,526.694763 360.727570,525.391357 360.567993,523.698914 
	C359.932220,520.818237 359.451141,518.312378 359.633240,515.313843 
	C361.336426,507.860016 360.734161,500.779480 360.041107,493.284668 
	C359.353821,488.627716 359.720428,484.363251 359.627258,479.720520 
	C359.542511,475.999115 361.323090,472.757629 360.442383,469.195923 
	C359.098633,469.849792 359.144318,471.020050 358.298706,472.041382 
	C357.339874,472.666534 356.621002,472.676361 355.670044,472.061340 
	C355.420959,470.817505 355.395752,469.879303 355.453735,468.598022 
	C355.747650,467.595428 356.069061,466.994293 356.685730,466.164154 
	C357.041656,465.603668 357.245789,465.361450 357.690613,465.021820 
	C359.595856,463.790375 361.358459,462.883270 363.905457,463.399597 
	C366.227875,464.081024 368.139679,464.639526 370.402344,465.325378 
	C373.358185,466.658447 373.869232,469.084015 374.159393,471.543457 
	C374.447418,473.984619 374.872467,476.390228 375.524048,478.752747 
	C375.794617,479.733765 375.148285,481.685364 377.689331,480.221710 
	C378.703186,479.637726 378.846558,482.076935 378.957764,483.657104 
z"/>
<path fill="#BFD096" opacity="1.000000" stroke="none" 
	d="
M593.267212,562.837646 
	C595.777100,552.795349 597.537292,542.444092 599.246094,532.083191 
	C599.757690,528.980896 600.695923,526.638916 604.427795,525.836731 
	C607.925354,525.085144 611.419128,524.864075 614.767883,525.401733 
	C619.773682,526.205444 619.269043,530.718750 619.487244,534.692932 
	C618.896118,534.276245 618.365845,533.622925 618.149780,532.878418 
	C616.440430,526.987183 613.268738,525.286926 607.241638,526.966370 
	C605.494324,527.453247 604.994263,528.582886 604.762695,530.199768 
	C603.876709,536.387329 602.186584,542.421753 601.561462,548.686707 
	C601.312256,551.184509 602.365417,555.468933 597.296143,555.630493 
	C596.786316,555.646729 596.289062,557.893372 595.892273,559.138733 
	C595.440063,560.558044 595.148987,562.041748 593.267212,562.837646 
z"/>
<path fill="#DDE6C7" opacity="1.000000" stroke="none" 
	d="
M677.630127,542.183960 
	C675.527222,533.112305 675.432312,523.958130 674.844299,514.846008 
	C674.670166,512.148132 675.590515,510.553345 678.485229,511.003754 
	C681.531555,511.477753 684.860657,510.027893 687.785645,512.689575 
	C678.964050,512.683289 678.740356,512.719238 680.097534,521.163635 
	C681.437012,529.498291 682.281799,537.792542 681.070190,546.647461 
	C680.625977,547.422119 680.150452,547.536621 679.317017,547.212891 
	C678.647705,545.411133 679.781311,543.508606 677.630127,542.183960 
z"/>
<path fill="#DDE6C7" opacity="1.000000" stroke="none" 
	d="
M373.956421,564.372803 
	C374.635742,563.765747 375.278992,563.515564 376.175598,563.518372 
	C377.670471,563.706970 379.132812,564.235718 379.882996,562.269775 
	C380.940399,560.970764 382.185272,561.097168 383.757019,561.217285 
	C385.708527,563.037476 387.862854,561.549316 389.969727,562.394836 
	C390.532654,562.615234 390.755920,562.723022 391.309875,563.020081 
	C396.401306,564.089905 401.209137,563.398865 405.988190,563.644348 
	C408.085999,563.752014 410.356415,563.251465 412.004120,565.583496 
	C411.260101,566.302490 410.510406,566.878845 409.779236,566.856140 
	C397.552948,566.477539 385.368561,567.372070 373.173553,567.955078 
	C372.379059,567.993103 371.574219,567.814758 370.732513,567.733032 
	C370.476196,565.106384 373.777344,566.667908 373.956421,564.372803 
z"/>
<path fill="#DDE6C7" opacity="1.000000" stroke="none" 
	d="
M393.753479,560.422852 
	C401.335449,558.210815 408.793243,559.123047 416.202759,559.037964 
	C418.193115,559.015076 420.184906,559.119141 422.646240,559.254517 
	C422.807770,561.730896 419.557465,560.080078 419.069824,562.612427 
	C414.942535,566.083923 410.378082,563.188599 405.696960,563.944946 
	C403.261139,563.365845 401.463470,562.150085 399.357849,561.810364 
	C398.872833,561.732117 398.491791,561.308716 397.959808,561.419861 
	C398.447723,561.907227 399.401123,561.944275 399.326233,563.288086 
	C397.545990,565.028870 395.732452,564.596802 393.659271,563.635925 
	C393.082367,562.438293 393.104797,561.600586 393.753479,560.422852 
z"/>
<path fill="#BFD096" opacity="1.000000" stroke="none" 
	d="
M379.178833,483.715393 
	C378.483978,483.008301 378.021606,482.018646 377.299103,480.472198 
	C376.994812,482.251007 376.772064,483.552948 376.418640,485.618958 
	C373.021088,479.038177 374.149353,471.965912 370.876587,465.787048 
	C373.646301,464.738220 375.354126,465.933441 376.591095,468.587372 
	C378.800781,473.328308 379.199493,478.347595 379.178833,483.715393 
z"/>
<path fill="#DDE6C7" opacity="1.000000" stroke="none" 
	d="
M276.903748,463.152954 
	C270.344818,471.564392 264.720184,480.853729 258.281860,490.385620 
	C256.674774,487.466705 258.092712,486.105164 259.008942,484.737640 
	C262.966431,478.830780 267.008270,472.980408 270.966339,467.073883 
	C271.863922,465.734406 273.236053,464.575958 273.064758,462.327301 
	C274.235413,462.327026 275.388092,462.701385 276.903748,463.152954 
z"/>
<path fill="#DDE6C7" opacity="1.000000" stroke="none" 
	d="
M228.492432,535.102478 
	C230.951752,538.172546 230.952469,532.888550 233.230179,534.473755 
	C230.131058,541.406616 226.915451,548.600037 223.378296,555.935547 
	C221.140701,550.265686 222.363266,545.011353 226.196045,540.056519 
	C228.379425,539.867615 228.680496,538.779419 228.078217,536.942688 
	C228.028366,536.187622 228.156708,535.715454 228.492432,535.102478 
z"/>
<path fill="#BFD096" opacity="1.000000" stroke="none" 
	d="
M403.483582,562.598999 
	C408.602173,562.880188 413.348846,562.930725 418.565735,562.969238 
	C419.036011,562.957153 419.028137,562.972900 419.035156,562.968689 
	C419.395721,563.396851 419.569672,563.892334 419.447510,564.837585 
	C417.313660,566.661255 415.017181,565.831726 412.423950,566.014526 
	C406.903290,564.105774 401.599030,565.628479 396.425781,565.052979 
	C394.400391,564.827698 392.158264,565.901245 390.326233,563.746582 
	C390.440948,562.833374 390.786774,562.474792 391.705811,562.229980 
	C392.629089,562.183777 393.119537,562.341492 393.775146,562.969482 
	C395.468597,564.239197 396.995117,564.086487 398.769531,563.231689 
	C400.237854,561.893250 401.644470,561.928345 403.483582,562.598999 
z"/>
<path fill="#BFD096" opacity="1.000000" stroke="none" 
	d="
M629.304565,496.691895 
	C627.907410,491.170532 625.055603,485.734619 625.108032,479.229919 
	C627.507568,477.930359 629.232056,477.581055 628.773010,481.200104 
	C628.128967,486.277435 630.421692,491.256927 629.304565,496.691895 
z"/>
<path fill="#BFD096" opacity="1.000000" stroke="none" 
	d="
M360.351440,514.626831 
	C360.370911,517.491577 360.616669,519.995667 360.692719,522.904907 
	C358.235657,520.825806 359.253937,517.669067 358.899811,514.825439 
	C358.149261,508.798706 357.695587,502.734955 357.228638,496.250732 
	C358.143188,495.261749 358.989746,495.250671 360.178680,495.936829 
	C361.512054,500.241516 360.757629,504.309631 360.995636,508.766266 
	C360.995697,509.481750 360.995514,509.767456 360.994080,510.480774 
	C360.958374,512.040527 361.061615,513.189697 360.351440,514.626831 
z"/>
<path fill="#BFD096" opacity="1.000000" stroke="none" 
	d="
M586.759766,503.229614 
	C586.297791,505.828094 583.693726,505.346466 581.839722,506.091156 
	C574.838074,508.903412 571.959106,514.289307 573.803711,521.800293 
	C569.801453,517.218262 571.700073,510.259796 578.070496,506.250214 
	C580.632202,504.637848 583.571411,504.154480 586.759766,503.229614 
z"/>
<path fill="#BFD096" opacity="1.000000" stroke="none" 
	d="
M383.173157,538.705566 
	C380.673492,531.714905 381.179138,524.200134 381.136810,516.269653 
	C382.024567,516.212524 382.579712,516.834290 382.616547,517.720520 
	C382.903259,524.618347 383.159424,531.517456 383.173157,538.705566 
z"/>
<path fill="#BFD096" opacity="1.000000" stroke="none" 
	d="
M638.399353,565.982971 
	C641.087891,560.656372 639.613403,555.083618 638.720337,549.526489 
	C638.458252,547.895264 638.302795,546.246887 638.221924,544.174438 
	C640.354675,551.099060 644.447510,558.417969 638.399353,565.982971 
z"/>
<path fill="#8EAF40" opacity="1.000000" stroke="none" 
	d="
M359.953369,496.191406 
	C359.018890,496.251221 358.460846,496.093719 357.619934,495.875671 
	C357.277374,494.151245 357.217651,492.487366 357.168945,490.405579 
	C356.947418,488.777527 357.094025,487.533783 356.801880,486.022095 
	C356.565186,484.410980 356.381805,483.101898 356.184631,481.392914 
	C356.181305,479.437347 356.840210,478.506195 358.881805,478.722870 
	C359.395996,479.113708 359.546051,479.337524 359.798035,479.954865 
	C360.262115,484.458038 359.593994,488.601746 360.451904,493.098755 
	C360.881470,494.363403 360.804810,495.190094 359.953369,496.191406 
z"/>
<path fill="#BFD096" opacity="1.000000" stroke="none" 
	d="
M635.330444,527.748169 
	C633.061218,525.923218 634.722046,524.122925 635.989563,522.941895 
	C639.887329,519.310242 639.556458,515.180908 638.078064,510.338745 
	C641.606262,513.812439 641.714722,518.724670 638.168091,522.938110 
	C636.994751,524.332031 635.798950,525.612122 635.330444,527.748169 
z"/>
<path fill="#BFD096" opacity="1.000000" stroke="none" 
	d="
M625.324463,475.722046 
	C624.752380,475.287811 624.166321,474.590088 624.115356,473.855225 
	C623.771606,468.899597 621.856201,465.031952 616.897583,462.736908 
	C623.789368,463.845306 625.681519,466.641266 625.324463,475.722046 
z"/>
<path fill="#DDE6C7" opacity="1.000000" stroke="none" 
	d="
M706.918091,516.739990 
	C705.386597,516.014038 703.877930,514.552185 704.825256,512.676758 
	C705.570801,511.200775 707.533936,512.019165 708.951843,512.060425 
	C711.419861,512.132202 713.882812,512.378113 716.670776,512.793640 
	C714.979248,514.767517 712.585327,513.700012 710.371826,513.883240 
	C708.661316,514.024719 706.971130,513.901855 706.918091,516.739990 
z"/>
<path fill="#BFD096" opacity="1.000000" stroke="none" 
	d="
M359.262939,478.694946 
	C357.666260,478.754883 357.063171,479.539215 356.391785,480.775757 
	C354.579956,478.358093 355.366150,475.436401 355.304321,472.194916 
	C356.051147,471.836731 356.656128,471.917755 357.563721,471.933533 
	C360.380676,473.520477 360.207062,475.876770 359.262939,478.694946 
z"/>
<path fill="#BFD096" opacity="1.000000" stroke="none" 
	d="
M596.250854,472.855042 
	C595.488098,478.182037 593.254089,483.310455 591.177002,488.794312 
	C591.224243,483.251190 593.407166,478.082642 596.250854,472.855042 
z"/>
<path fill="#BFD096" opacity="1.000000" stroke="none" 
	d="
M622.316833,547.163452 
	C624.517761,551.400818 626.603455,556.024292 628.562195,561.005371 
	C624.330872,557.673035 623.431152,552.536865 622.316833,547.163452 
z"/>
<path fill="#BFD096" opacity="1.000000" stroke="none" 
	d="
M615.001587,460.593689 
	C611.584106,459.379303 608.092957,458.437866 604.188171,460.806335 
	C607.514771,456.526947 610.462036,456.381866 615.001587,460.593689 
z"/>
<path fill="#DDE6C7" opacity="1.000000" stroke="none" 
	d="
M723.276794,552.770386 
	C721.741028,549.219238 720.469360,545.440796 719.226196,541.283813 
	C722.446106,544.135376 723.097229,548.301025 723.276794,552.770386 
z"/>
<path fill="#BFD096" opacity="1.000000" stroke="none" 
	d="
M602.460510,461.893768 
	C601.992859,464.962891 599.892029,467.381683 597.860535,470.141052 
	C597.649536,466.719482 599.439453,464.101898 602.460510,461.893768 
z"/>
<path fill="#DDE6C7" opacity="1.000000" stroke="none" 
	d="
M662.608521,553.284302 
	C664.435364,555.159851 663.602905,558.378052 666.153687,560.467041 
	C661.788269,560.087769 661.978760,556.865295 662.608521,553.284302 
z"/>
<path fill="#BFD096" opacity="1.000000" stroke="none" 
	d="
M581.056396,533.277222 
	C582.722168,535.915466 581.169922,538.369019 579.912109,541.092224 
	C578.958618,538.540466 580.133606,536.072083 581.056396,533.277222 
z"/>
<path fill="#BFD096" opacity="1.000000" stroke="none" 
	d="
M361.104218,552.291992 
	C362.613403,554.420532 361.810333,556.935730 361.793335,559.816406 
	C359.319733,557.907959 360.380066,555.187439 361.104218,552.291992 
z"/>
<path fill="#DDE6C7" opacity="1.000000" stroke="none" 
	d="
M721.036926,513.579956 
	C723.328186,512.656189 725.937866,513.459167 728.657227,512.168335 
	C727.091431,515.683960 724.300903,515.582703 721.036926,513.579956 
z"/>
<path fill="#BFD096" opacity="1.000000" stroke="none" 
	d="
M583.897156,565.727295 
	C586.166687,564.780701 588.873718,565.434570 591.639038,564.076111 
	C590.066406,567.401062 587.187866,567.129395 583.897156,565.727295 
z"/>
<path fill="#BFD096" opacity="1.000000" stroke="none" 
	d="
M636.083618,507.475952 
	C633.393066,507.073883 630.280579,506.870819 629.262512,503.088623 
	C631.144592,504.841400 634.388977,504.765106 636.083618,507.475952 
z"/>
<path fill="#BFD096" opacity="1.000000" stroke="none" 
	d="
M578.130371,526.314148 
	C581.099365,526.204590 584.452576,526.199341 581.890259,531.084656 
	C581.674133,528.856812 579.721741,527.927246 578.130371,526.314148 
z"/>
<path fill="#DDE6C7" opacity="1.000000" stroke="none" 
	d="
M672.907104,563.673523 
	C673.903198,561.854065 675.260193,560.129822 676.887085,558.215942 
	C678.052124,561.424561 676.063965,562.870178 672.907104,563.673523 
z"/>
<path fill="#BFD096" opacity="1.000000" stroke="none" 
	d="
M631.044067,565.370667 
	C633.041504,565.457275 635.011780,566.526489 637.642029,566.046387 
	C635.570740,569.383850 633.341675,567.624329 631.044067,565.370667 
z"/>
<path fill="#BFD096" opacity="1.000000" stroke="none" 
	d="
M380.190125,496.711273 
	C378.419281,495.047455 379.244049,492.759491 379.174194,490.194183 
	C381.654175,491.653473 380.595062,494.112976 380.190125,496.711273 
z"/>
<path fill="#DDE6C7" opacity="1.000000" stroke="none" 
	d="
M650.629700,463.071655 
	C650.939209,465.076965 650.880310,467.154907 650.739502,469.673035 
	C648.126587,467.926727 648.412598,465.579926 650.629700,463.071655 
z"/>
<path fill="#BFD096" opacity="1.000000" stroke="none" 
	d="
M577.579651,558.243774 
	C578.834290,559.760071 579.882935,561.519958 580.976318,563.626953 
	C578.175598,563.228455 577.375732,561.122986 577.579651,558.243774 
z"/>
<path fill="#BFD096" opacity="1.000000" stroke="none" 
	d="
M637.378906,536.740112 
	C635.517029,535.155762 635.560120,532.766052 635.225220,530.138916 
	C637.449219,531.532715 637.261658,534.088989 637.378906,536.740112 
z"/>
<path fill="#BFD096" opacity="1.000000" stroke="none" 
	d="
M364.127686,463.276245 
	C362.444611,463.978485 360.573120,464.434418 358.294830,464.889160 
	C359.346069,462.447876 361.437775,462.071594 364.127686,463.276245 
z"/>
<path fill="#BFD096" opacity="1.000000" stroke="none" 
	d="
M619.474243,537.098206 
	C621.283386,538.285034 621.718079,540.294739 621.506836,542.719727 
	C619.663940,541.487427 619.932678,539.323303 619.474243,537.098206 
z"/>
<path fill="#DDE6C7" opacity="1.000000" stroke="none" 
	d="
M425.315552,547.746704 
	C423.873993,546.774719 424.480194,545.131897 424.051453,543.355591 
	C426.837677,543.724304 425.951477,545.698669 425.315552,547.746704 
z"/>
<path fill="#BFD096" opacity="1.000000" stroke="none" 
	d="
M579.062744,543.285522 
	C580.283386,544.710876 580.132080,546.330505 578.859192,548.085205 
	C577.942688,546.664734 578.041748,545.089600 579.062744,543.285522 
z"/>
<path fill="#DDE6C7" opacity="1.000000" stroke="none" 
	d="
M731.675537,506.003387 
	C731.289734,504.985687 731.196350,503.852936 731.219849,502.305054 
	C733.465454,502.919830 733.328308,504.307526 731.675537,506.003387 
z"/>
<path fill="#BFD096" opacity="1.000000" stroke="none" 
	d="
M360.739502,528.238892 
	C362.236633,528.926880 362.000671,530.200439 361.541321,531.720093 
	C360.022308,531.044312 360.172485,529.785217 360.739502,528.238892 
z"/>
<path fill="#BFD096" opacity="1.000000" stroke="none" 
	d="
M356.569580,486.070312 
	C358.135742,486.744843 358.084930,488.094727 357.396057,489.763855 
	C356.098541,488.979736 356.168213,487.717072 356.569580,486.070312 
z"/>
<path fill="#BFD096" opacity="1.000000" stroke="none" 
	d="
M381.164581,505.769165 
	C379.806244,505.052948 380.001190,503.766235 380.165680,502.147583 
	C381.957794,502.647522 381.860992,504.038116 381.164581,505.769165 
z"/>
<path fill="#DDE6C7" opacity="1.000000" stroke="none" 
	d="
M661.389282,541.898499 
	C662.894409,542.562439 662.914734,544.003784 662.504517,545.775696 
	C660.820435,545.124207 661.063660,543.701355 661.389282,541.898499 
z"/>
<path fill="#DDE6C7" opacity="1.000000" stroke="none" 
	d="
M730.676880,499.078430 
	C729.665405,498.618896 728.747986,497.777344 727.702515,496.649139 
	C729.494324,495.970337 730.569763,496.734711 730.676880,499.078430 
z"/>
<path fill="#BFD096" opacity="1.000000" stroke="none" 
	d="
M399.800720,538.925415 
	C399.258972,539.962524 398.312073,539.907104 397.011169,539.635620 
	C397.437744,538.421692 398.398132,538.095215 399.800720,538.925415 
z"/>
<path fill="#BFD096" opacity="1.000000" stroke="none" 
	d="
M392.785126,539.776733 
	C392.304871,540.781006 391.384033,540.919067 390.030640,540.663208 
	C390.388916,539.437073 391.359192,539.155273 392.785126,539.776733 
z"/>
<path fill="#DDE6C7" opacity="1.000000" stroke="none" 
	d="
M656.705444,512.188171 
	C657.832947,512.643738 657.844055,513.562683 657.586182,514.834045 
	C656.138000,514.554382 655.816528,513.627258 656.705444,512.188171 
z"/>
<path fill="#BFD096" opacity="1.000000" stroke="none" 
	d="
M638.352478,541.794861 
	C637.191711,541.394470 637.066528,540.455688 637.258240,539.081543 
	C638.589844,539.338623 639.002075,540.283752 638.352478,541.794861 
z"/>
<path fill="#DDE6C7" opacity="1.000000" stroke="none" 
	d="
M659.737244,530.185059 
	C660.803467,530.665527 660.794434,531.571899 660.562988,532.829956 
	C659.135681,532.553467 658.841187,531.619080 659.737244,530.185059 
z"/>
<path fill="#F2F6EA" opacity="1.000000" stroke="none" 
	d="
M679.006470,547.333130 
	C679.463257,547.007263 679.916321,547.027893 680.709839,547.071899 
	C680.874573,547.968994 681.329468,549.296265 680.043945,549.460876 
	C678.920898,549.604736 679.136475,548.416870 679.006470,547.333130 
z"/>
<path fill="#BFD096" opacity="1.000000" stroke="none" 
	d="
M578.068359,550.177307 
	C579.118713,550.918396 578.927185,551.808167 578.086731,552.851135 
	C576.958313,552.119080 577.137878,551.223694 578.068359,550.177307 
z"/>
<path fill="#DDE6C7" opacity="1.000000" stroke="none" 
	d="
M658.801697,524.166870 
	C659.849548,524.683716 659.833252,525.591492 659.545898,526.842163 
	C658.120728,526.507141 657.807312,525.580322 658.801697,524.166870 
z"/>
<path fill="#DDE6C7" opacity="1.000000" stroke="none" 
	d="
M657.703247,518.195557 
	C658.791443,518.639587 658.849731,519.541443 658.654053,520.813965 
	C657.156067,520.610657 656.817627,519.685303 657.703247,518.195557 
z"/>
<path fill="#DDE6C7" opacity="1.000000" stroke="none" 
	d="
M646.199707,497.965820 
	C646.554626,498.679230 646.652039,499.509277 646.619751,500.744019 
	C644.905884,500.377045 644.689209,499.361023 646.199707,497.965820 
z"/>
<path fill="#BFD096" opacity="1.000000" stroke="none" 
	d="
M587.977783,499.245544 
	C589.211426,500.080688 588.948425,501.057190 587.810791,502.125916 
	C587.074219,501.308868 587.125610,500.379211 587.977783,499.245544 
z"/>
<path fill="#8EAF40" opacity="1.000000" stroke="none" 
	d="
M227.812225,537.008179 
	C229.853500,538.441162 229.739044,539.738342 226.763428,540.186523 
	C226.913834,539.084106 227.319138,538.220337 227.812225,537.008179 
z"/>
<path fill="#DDE6C7" opacity="1.000000" stroke="none" 
	d="
M649.992188,505.385529 
	C651.210938,505.213501 651.681763,506.174744 652.239014,507.442383 
	C650.699829,508.076843 650.122986,507.177734 649.992188,505.385529 
z"/>
<path fill="#DDE6C7" opacity="1.000000" stroke="none" 
	d="
M723.050049,492.535034 
	C721.877258,492.600616 721.457825,491.618256 720.991333,490.338318 
	C722.431824,490.003143 722.927490,490.912781 723.050049,492.535034 
z"/>
<path fill="#DDE6C7" opacity="1.000000" stroke="none" 
	d="
M687.944702,513.396423 
	C689.194763,513.378967 689.526855,514.400635 689.754517,515.785339 
	C688.384705,515.856018 688.018799,514.898743 687.944702,513.396423 
z"/>
<path fill="#DDE6C7" opacity="1.000000" stroke="none" 
	d="
M709.181763,560.987305 
	C709.733826,561.040039 710.220093,561.391296 710.819641,562.026123 
	C709.607971,563.245056 709.284363,562.403198 709.181763,560.987305 
z"/>
<path fill="#DDE6C7" opacity="1.000000" stroke="none" 
	d="
M272.038177,461.135437 
	C271.688812,461.551727 271.220703,461.738770 270.374969,461.960602 
	C270.152466,460.775421 270.422821,459.758850 272.038177,461.135437 
z"/>
<path fill="#DDE6C7" opacity="1.000000" stroke="none" 
	d="
M712.943970,562.846130 
	C713.412170,562.602539 713.982727,562.585571 714.778748,562.767700 
	C714.402344,563.940918 713.745789,563.903442 712.943970,562.846130 
z"/>
<path fill="#BFD096" opacity="1.000000" stroke="none" 
	d="
M363.972229,563.417236 
	C364.836853,563.007019 365.587616,563.252014 366.001953,564.560913 
	C365.066071,565.097412 364.559753,564.411133 363.972229,563.417236 
z"/>
<path fill="#DDE6C7" opacity="1.000000" stroke="none" 
	d="
M268.679535,463.046997 
	C268.597443,463.681885 268.178497,464.355438 267.464905,465.129486 
	C267.045837,464.233490 267.300507,463.444275 268.679535,463.046997 
z"/>
<path fill="#DDE6C7" opacity="1.000000" stroke="none" 
	d="
M419.585724,565.114624 
	C419.248901,564.723816 419.167206,564.223267 419.063843,563.343628 
	C420.381927,563.224426 421.344940,563.631775 419.585724,565.114624 
z"/>
<path fill="#DDE6C7" opacity="1.000000" stroke="none" 
	d="
M722.187744,561.930847 
	C722.074402,561.384766 722.257812,560.840881 722.692322,560.143799 
	C724.111084,560.950134 723.653137,561.525574 722.187744,561.930847 
z"/>
<path fill="#DDE6C7" opacity="1.000000" stroke="none" 
	d="
M668.945862,563.682007 
	C669.431396,563.443420 669.999268,563.455444 670.794067,563.651184 
	C670.404663,564.845337 669.739624,564.862427 668.945862,563.682007 
z"/>
<path fill="#BFD096" opacity="1.000000" stroke="none" 
	d="
M356.571869,465.971588 
	C357.013489,466.742035 356.669861,467.414001 355.795776,468.116943 
	C355.118408,467.305023 355.482941,466.614197 356.571869,465.971588 
z"/>
<path fill="#DDE6C7" opacity="1.000000" stroke="none" 
	d="
M264.482849,468.998657 
	C264.908356,469.840271 264.473419,470.499664 263.497498,471.155090 
	C263.005981,470.312988 263.249634,469.548431 264.482849,468.998657 
z"/>
<path fill="#DDE6C7" opacity="1.000000" stroke="none" 
	d="
M719.934570,488.695618 
	C719.273560,488.658203 718.575378,488.271118 717.746948,487.601105 
	C718.641235,487.074097 719.478149,487.246674 719.934570,488.695618 
z"/>
<path fill="#DDE6C7" opacity="1.000000" stroke="none" 
	d="
M696.400146,530.824158 
	C696.959167,531.165466 697.388550,531.829285 697.762085,532.798584 
	C696.705933,532.834290 696.143250,532.243530 696.400146,530.824158 
z"/>
<path fill="#DDE6C7" opacity="1.000000" stroke="none" 
	d="
M730.288391,510.980164 
	C730.158203,510.439178 730.316345,509.878357 730.728516,509.157379 
	C732.117004,509.914062 731.671936,510.504364 730.288391,510.980164 
z"/>
<path fill="#DDE6C7" opacity="1.000000" stroke="none" 
	d="
M710.733521,523.065063 
	C710.152771,522.781189 709.653076,522.162659 709.170715,521.234070 
	C710.195435,521.107361 710.822510,521.633057 710.733521,523.065063 
z"/>
<path fill="#DDE6C7" opacity="1.000000" stroke="none" 
	d="
M693.273865,523.919678 
	C694.155823,523.989380 694.647095,524.610657 694.721924,525.808044 
	C693.714966,525.852783 693.165039,525.274231 693.273865,523.919678 
z"/>
<path fill="#BFD096" opacity="1.000000" stroke="none" 
	d="
M589.000244,495.220276 
	C590.108582,495.774017 589.734924,496.426117 588.877808,497.169922 
	C588.689758,496.664490 588.712952,496.043976 589.000244,495.220276 
z"/>
<path fill="#DDE6C7" opacity="1.000000" stroke="none" 
	d="
M652.767517,491.194641 
	C653.986511,491.862854 653.674805,492.558136 652.445251,493.200317 
	C652.281677,492.618774 652.400024,492.005615 652.767517,491.194641 
z"/>
<path fill="#BFD096" opacity="1.000000" stroke="none" 
	d="
M590.250854,490.857941 
	C591.011292,491.545502 590.762451,492.279388 589.842773,493.102814 
	C589.109619,492.403931 589.429382,491.695709 590.250854,490.857941 
z"/>
<path fill="#DDE6C7" opacity="1.000000" stroke="none" 
	d="
M715.535156,532.194824 
	C714.935425,531.874451 714.487122,531.223572 714.064331,530.267029 
	C715.160950,530.143616 715.833679,530.660095 715.535156,532.194824 
z"/>
<path fill="#DDE6C7" opacity="1.000000" stroke="none" 
	d="
M262.525726,472.003418 
	C262.946320,472.866547 262.461639,473.496490 261.484406,474.139038 
	C261.028473,473.296295 261.254944,472.517212 262.525726,472.003418 
z"/>
<path fill="#DDE6C7" opacity="1.000000" stroke="none" 
	d="
M660.639282,535.192993 
	C661.595459,535.352112 661.724487,535.933594 661.360718,536.837891 
	C660.458130,536.692688 660.054810,536.205811 660.639282,535.192993 
z"/>
<path fill="#DDE6C7" opacity="1.000000" stroke="none" 
	d="
M651.731201,487.154724 
	C652.170105,487.537903 652.407288,488.065399 652.528442,488.876526 
	C651.584412,488.793060 650.938293,488.339600 651.731201,487.154724 
z"/>
<path fill="#DDE6C7" opacity="1.000000" stroke="none" 
	d="
M702.345581,544.849121 
	C703.212585,544.996948 703.659729,545.648682 703.630859,546.840088 
	C702.615051,546.802795 702.111633,546.188477 702.345581,544.849121 
z"/>
<path fill="#DDE6C7" opacity="1.000000" stroke="none" 
	d="
M704.396851,549.826782 
	C704.954102,550.173584 705.382385,550.840759 705.740112,551.810059 
	C704.680237,551.829651 704.133606,551.231262 704.396851,549.826782 
z"/>
<path fill="#DDE6C7" opacity="1.000000" stroke="none" 
	d="
M650.796082,482.131439 
	C651.227112,482.535736 651.446472,483.073151 651.519775,483.884216 
	C650.555115,483.758362 649.915771,483.284088 650.796082,482.131439 
z"/>
<path fill="#DDE6C7" opacity="1.000000" stroke="none" 
	d="
M426.424805,557.024170 
	C426.280029,556.497559 426.411255,555.932190 426.780182,555.184753 
	C428.082367,555.850769 427.734161,556.472900 426.424805,557.024170 
z"/>
<path fill="#DDE6C7" opacity="1.000000" stroke="none" 
	d="
M706.416382,554.816345 
	C706.966980,555.163635 707.380798,555.831787 707.747437,556.803223 
	C706.694641,556.833923 706.136597,556.238464 706.416382,554.816345 
z"/>
<path fill="#F2F6EA" opacity="1.000000" stroke="none" 
	d="
M687.114197,492.650665 
	C683.590576,490.589020 680.422546,489.627594 677.047485,492.184814 
	C674.890259,493.819275 673.525696,493.318329 672.893616,490.462097 
	C672.222778,487.430817 672.032410,484.148529 669.501099,481.779053 
	C669.146545,481.447113 668.999146,480.437347 669.240051,480.022675 
	C669.713501,479.207825 670.656311,479.468353 671.485901,479.598663 
	C678.741089,480.738373 698.000427,490.531982 704.378540,496.713287 
	C697.881287,496.581757 692.238770,496.944550 687.114197,492.650665 
z"/>
<path fill="#FFFFFF" opacity="1.000000" stroke="none" 
	d="
M527.519348,483.013855 
	C528.749207,481.506500 529.697571,481.267700 529.971802,483.093445 
	C530.134338,484.175812 530.208923,485.684906 528.756104,485.849365 
	C527.098633,486.036987 527.287476,484.574615 527.519348,483.013855 
z"/>
<path fill="#F2F6EA" opacity="1.000000" stroke="none" 
	d="
M608.262817,506.561340 
	C605.775330,506.619476 604.175049,506.241547 604.867493,503.502563 
	C606.311462,497.790955 607.703857,492.066284 609.935242,486.338379 
	C612.037415,492.249207 612.930481,498.277008 612.926025,504.383362 
	C612.924133,506.933960 610.380127,506.375946 608.262817,506.561340 
z"/>
<path fill="#8DAE3F" opacity="1.000000" stroke="none" 
	d="
M758.636108,483.997253 
	C759.352844,484.011230 759.686157,483.996887 760.010803,484.043213 
	C760.402832,484.099121 761.178650,484.395386 760.693176,484.684509 
	C757.676575,486.480774 747.540588,484.508759 745.017212,481.277405 
	C749.783997,482.256744 754.016418,483.126251 758.636108,483.997253 
z"/>
<path fill="#8DAE3F" opacity="1.000000" stroke="none" 
	d="
M763.720947,465.000183 
	C765.642395,464.951538 767.008667,465.261902 768.512512,466.781555 
	C764.324341,466.781555 760.674500,466.781555 756.754272,466.781555 
	C758.675903,464.310577 761.134155,465.208282 763.720947,465.000183 
z"/>
<path fill="#FCFCF9" opacity="1.000000" stroke="none" 
	d="
M309.985382,514.307861 
	C310.182983,511.218811 310.390350,508.442413 310.736084,505.285828 
	C311.843048,504.536011 312.565674,504.984985 313.452789,505.987091 
	C311.969299,515.233948 314.133026,524.051147 314.126770,533.254517 
	C314.301178,534.070312 314.502197,534.518250 314.419952,535.012634 
	C314.915039,534.606873 314.265686,534.278259 314.246765,533.553955 
	C313.108826,522.114014 313.182007,511.007050 313.790405,499.473206 
	C313.988800,498.236145 314.218140,497.438629 314.479736,496.237671 
	C314.903534,493.779297 315.579803,491.791840 316.122528,489.377380 
	C317.716034,486.631256 317.896545,483.707672 319.613159,481.021790 
	C321.716583,477.440430 322.860687,479.326477 323.747101,481.396881 
	C325.647583,485.835846 327.255341,490.384949 327.918091,495.198608 
	C330.100861,511.052521 332.443146,526.911926 327.170807,542.652588 
	C326.374969,545.028687 325.523193,547.366211 323.942078,549.360901 
	C321.688080,552.204468 318.610382,552.898315 315.410095,551.883118 
	C311.833618,550.748474 309.027954,548.291199 307.237366,544.940125 
	C306.619904,543.784546 307.525482,542.991089 308.723328,543.065125 
	C313.229675,543.343567 312.469604,540.322937 311.999725,537.724548 
	C310.932953,531.825317 309.964111,525.925842 309.991272,519.453674 
	C310.007935,517.539124 310.023315,516.079712 309.985382,514.307861 
z"/>
<path fill="#DDE6C7" opacity="1.000000" stroke="none" 
	d="
M315.750397,495.666321 
	C315.897339,496.471497 315.848480,497.018311 315.621185,497.779816 
	C313.282745,500.155548 314.727753,503.264801 313.096191,505.898560 
	C312.306885,505.810455 311.849945,505.476074 311.133728,505.023682 
	C311.378082,496.130981 313.460449,487.896057 319.428589,480.775696 
	C319.891724,483.528381 319.247467,486.192200 317.534790,488.887207 
	C315.657562,490.932312 315.564972,493.159058 315.750397,495.666321 
z"/>
<path fill="#DDE6C7" opacity="1.000000" stroke="none" 
	d="
M309.756042,514.250977 
	C311.465454,515.346375 311.084015,516.930481 310.275024,518.766602 
	C308.856720,517.606018 309.218994,516.054016 309.756042,514.250977 
z"/>
<path fill="#FCFCF9" opacity="1.000000" stroke="none" 
	d="
M445.795563,543.449463 
	C448.225555,543.026978 450.401764,542.930969 450.001678,539.388062 
	C449.366516,537.032166 453.121094,537.186340 451.869202,534.597290 
	C449.689728,518.402405 450.057770,502.726135 454.326233,487.246918 
	C454.861786,485.304871 455.522705,483.443909 456.643463,481.278076 
	C458.975739,478.412933 460.435760,479.170868 461.559906,481.804718 
	C463.324951,485.940155 464.779907,490.155365 465.450592,494.634277 
	C467.867401,510.774689 470.024414,526.873901 464.859894,542.952271 
	C461.962769,551.971741 455.632904,554.977600 449.393555,549.911987 
	C448.240936,548.976257 447.280884,547.803284 446.054352,546.452026 
	C445.498260,545.405762 445.297668,544.622314 445.795563,543.449463 
z"/>
<path fill="#DDE6C7" opacity="1.000000" stroke="none" 
	d="
M452.790161,535.634216 
	C456.648926,541.131714 449.646820,536.206848 450.252167,538.849731 
	C446.173706,524.961426 445.889893,510.874176 449.697327,496.806305 
	C450.468231,493.957977 450.709595,490.885895 452.712219,488.070557 
	C454.789459,489.762512 453.698853,491.923279 453.253632,493.930542 
	C450.206299,507.667999 450.304932,521.443115 452.790161,535.634216 
z"/>
<path fill="#BFD096" opacity="1.000000" stroke="none" 
	d="
M453.053284,535.556091 
	C449.580170,533.054626 450.937500,528.733459 450.522369,525.194824 
	C449.342438,515.137207 449.750366,504.982483 452.225433,495.067291 
	C452.758087,492.933441 453.192139,490.881317 452.984650,488.254486 
	C453.067200,485.076416 454.208588,482.842377 456.535645,480.957153 
	C453.595215,494.992249 451.160034,509.172211 452.158997,523.726501 
	C452.419556,527.522827 452.764038,531.313354 453.053284,535.556091 
z"/>
<path fill="#DDE6C7" opacity="1.000000" stroke="none" 
	d="
M445.733459,543.055054 
	C446.019409,543.883057 445.990021,544.643799 445.918671,545.784424 
	C444.720306,545.250305 443.158966,544.394836 445.733459,543.055054 
z"/>
<path fill="#8DAE3F" opacity="1.000000" stroke="none" 
	d="
M359.576355,496.838562 
	C359.719604,495.482483 359.862213,494.556274 360.277222,493.130554 
	C362.242798,493.703735 362.120453,495.442413 361.974243,497.040924 
	C361.434052,502.948181 363.314087,509.003754 360.508057,514.889160 
	C360.081543,513.920227 360.037933,512.853027 360.025299,511.385712 
	C360.170746,510.809570 360.285248,510.633545 360.186432,510.225830 
	C359.840637,505.752197 359.708160,501.510315 359.576355,496.838562 
z"/>
<path fill="#DDE6C7" opacity="1.000000" stroke="none" 
	d="
M358.966217,479.032898 
	C359.212402,476.831940 358.821289,474.717773 357.975739,472.259583 
	C357.992584,470.737823 357.910370,469.528809 358.298981,468.497192 
	C358.762054,467.267853 359.738739,466.041321 361.231598,466.426361 
	C362.782684,466.826385 362.103485,468.352661 362.020203,469.369629 
	C361.806488,471.979584 361.404907,474.574097 361.042908,477.588989 
	C360.584778,478.495514 360.231842,479.065308 359.268707,479.169861 
	C358.965027,479.045197 358.972321,479.031433 358.966217,479.032898 
z"/>
<path fill="#BFD096" opacity="1.000000" stroke="none" 
	d="
M358.934387,479.503387 
	C359.472015,478.778320 359.979004,478.511414 360.746674,478.123840 
	C361.242035,482.606567 361.396942,487.208954 360.685425,492.216248 
	C360.549591,492.631042 360.297974,492.698914 360.168640,492.697845 
	C357.989075,488.600769 359.395630,484.196533 358.934387,479.503387 
z"/>
<path fill="#DDE6C7" opacity="1.000000" stroke="none" 
	d="
M392.021057,562.893555 
	C391.366730,563.192017 391.054657,563.238403 390.510437,563.318115 
	C390.281158,563.371155 390.155396,563.189575 390.089081,563.101257 
	C388.904114,561.819458 387.012756,563.209167 385.987701,561.426025 
	C387.617371,559.781921 389.531281,560.311890 391.717987,560.231567 
	C392.672180,561.054749 392.722382,561.835999 392.021057,562.893555 
z"/>
<path fill="#FFFFFF" opacity="1.000000" stroke="none" 
	d="
M379.642517,562.035461 
	C380.428284,562.615662 380.853943,563.221863 381.279602,563.828003 
	C379.907806,564.695129 378.514526,565.359497 376.683044,564.030029 
	C376.731781,562.119446 378.216705,562.440247 379.642517,562.035461 
z"/>
<path fill="#FFFFFF" opacity="1.000000" stroke="none" 
	d="
M385.692688,561.046021 
	C386.870697,562.447632 388.604156,561.549500 389.835693,562.730347 
	C388.194305,561.757812 385.446442,565.934937 384.091675,561.663086 
	C384.531647,561.226257 384.950500,561.131836 385.692688,561.046021 
z"/>
<path fill="#FFFFFF" opacity="1.000000" stroke="none" 
	d="
M392.062775,563.151733 
	C391.797913,562.427246 391.919983,561.728638 392.077759,560.679321 
	C392.530487,560.232422 392.947540,560.136292 393.686462,560.055054 
	C394.023834,560.875427 394.039368,561.680969 394.020203,562.892944 
	C393.473572,563.258789 392.961639,563.218140 392.062775,563.151733 
z"/>
<path fill="#FFFFFF" opacity="1.000000" stroke="none" 
	d="
M403.827850,562.456055 
	C402.507874,562.872253 401.160217,562.914917 399.405975,562.970276 
	C398.314423,562.546326 397.629425,562.109680 396.258179,561.235535 
	C399.250031,561.152893 401.615875,559.936584 403.827850,562.456055 
z"/>
<path fill="#8EAF40" opacity="1.000000" stroke="none" 
	d="
M359.976929,510.243408 
	C360.106506,510.260681 360.239899,510.527222 360.214783,510.889679 
	C360.056244,510.985565 359.980713,510.492676 359.976929,510.243408 
z"/>
<path fill="#BFD096" opacity="1.000000" stroke="none" 
	d="
M312.771667,506.562683 
	C313.203369,503.481659 312.927155,500.642487 315.066956,498.149719 
	C313.835236,510.012909 314.180420,522.051819 315.083344,534.559814 
	C314.924011,535.131042 314.744507,535.238831 314.340240,535.127319 
	C312.486755,527.153564 311.833282,519.323669 312.337036,511.409363 
	C312.431213,509.929688 312.629395,508.456604 312.771667,506.562683 
z"/>
<path fill="#BFD096" opacity="1.000000" stroke="none" 
	d="
M315.953064,495.537109 
	C314.061554,493.299347 315.207428,491.018829 317.004272,488.946838 
	C316.819916,491.122681 316.389923,493.136108 315.953064,495.537109 
z"/>
<path fill="#DDE6C7" opacity="1.000000" stroke="none" 
	d="
M314.069183,535.275391 
	C314.115448,534.908081 314.608978,534.961487 314.856232,534.992432 
	C316.187225,535.911621 316.194458,536.991333 315.574036,538.114502 
	C315.473083,538.297241 314.909149,538.445801 314.743073,538.334900 
	C313.747223,537.669800 314.092102,536.591614 314.069183,535.275391 
z"/>
</svg>