<svg version="1.1" id="Layer_1" xmlns="http://www.w3.org/2000/svg" xmlns:xlink="http://www.w3.org/1999/xlink" x="0px" y="0px"
	 width="100%" viewBox="0 0 1024 1024" enable-background="new 0 0 1024 1024" xml:space="preserve">
<path fill="#000000" opacity="1.000000" stroke="none" 
	d="
M954.000000,1025.000000 
	C637.500000,1025.000000 321.500000,1024.992310 5.500030,1025.093262 
	C1.750888,1025.094360 0.905801,1024.249146 0.906913,1020.500000 
	C1.007246,682.166687 1.007246,343.833344 0.906913,5.500028 
	C0.905801,1.750903 1.750902,0.905800 5.500028,0.906912 
	C343.833344,1.007255 682.166687,1.007255 1020.500000,0.906912 
	C1024.249146,0.905800 1025.094360,1.750902 1025.093262,5.500027 
	C1024.992920,343.833344 1024.992798,682.166687 1025.093140,1020.500000 
	C1025.094238,1024.249146 1024.254639,1025.136108 1020.499084,1025.100952 
	C998.500977,1024.895386 976.500000,1025.000000 954.000000,1025.000000 
z"/>
<path fill="#88A93B" opacity="1.000000" stroke="none" 
	d="
M675.609863,511.176331 
	C675.146118,512.383606 675.006470,513.694153 674.834839,515.503479 
	C674.382385,516.803284 674.493896,517.649780 674.771973,518.756714 
	C676.391724,530.927734 677.181213,542.873718 677.026001,554.875793 
	C676.962097,559.815247 674.020142,563.900208 670.427856,563.963135 
	C667.457642,564.015137 663.182251,559.524597 662.839600,555.506592 
	C661.708313,542.241821 659.027893,529.197876 657.394531,516.027344 
	C656.650574,510.028259 652.551880,507.869812 649.112854,504.765656 
	C644.059875,500.204651 644.540161,495.747711 650.918518,493.444336 
	C652.578674,492.844818 652.964539,492.237305 652.539368,490.603973 
	C651.744629,487.550659 651.183594,484.437286 650.437134,481.370392 
	C649.950928,479.372894 649.512939,477.477722 651.344849,475.854584 
	C652.849854,474.521027 651.948608,473.368683 651.165771,471.953339 
	C647.241638,464.858429 650.254211,459.903473 658.404175,459.834717 
	C667.895996,459.754669 676.138550,464.044189 684.458130,467.684296 
	C696.844421,473.103790 708.064697,480.676666 718.927063,488.619110 
	C722.552979,491.270325 725.701843,494.851471 729.031372,498.037201 
	C732.644043,501.493774 731.643860,506.101715 730.017578,510.192352 
	C728.485535,514.046021 725.050659,513.851074 721.524353,513.409363 
	C717.070984,512.851440 712.570923,512.658386 708.088074,512.349365 
	C706.970215,512.272278 705.541626,511.792755 704.857117,512.885071 
	C704.153381,514.008179 705.240295,515.081665 705.842590,516.024658 
	C710.866516,523.890137 715.110657,532.170288 718.860840,540.699219 
	C721.144104,545.892090 722.928284,551.248047 722.956665,557.036804 
	C722.977600,561.301025 721.368042,563.294983 716.667053,563.189148 
	C711.405457,563.070618 708.492004,561.300781 706.638428,556.060120 
	C703.319153,546.675537 699.087158,537.613892 695.173950,528.044922 
	C694.283508,526.401123 693.663330,525.044434 693.211060,523.274536 
	C693.009827,523.012939 692.962341,522.994690 692.981079,522.977600 
	C692.542114,522.559082 692.514832,521.974792 692.179932,521.227600 
	C692.003357,521.009033 691.975281,520.997864 691.986206,520.987427 
	C691.540039,520.558472 691.514038,519.961365 691.151917,519.214844 
	C690.951050,519.009460 690.801270,518.858826 690.827637,518.755920 
	C689.868042,516.934082 688.770630,515.277344 687.809448,513.161987 
	C687.483887,512.732300 687.303711,512.603882 686.964478,512.282593 
	C686.805542,512.089661 686.435181,511.960724 686.265747,511.862030 
	C685.310547,511.207520 684.477356,510.915497 683.212036,511.447266 
	C681.518860,511.510498 680.135986,511.426331 678.349365,511.229980 
	C677.282104,511.259003 676.621521,511.437408 675.609863,511.176331 
z"/>
<path fill="#88A93C" opacity="1.000000" stroke="none" 
	d="
M526.661987,482.358124 
	C515.781738,489.908264 509.165466,500.272186 506.577820,513.281006 
	C505.025757,521.083740 506.029144,528.502502 509.338593,535.643433 
	C513.883789,545.450745 521.576416,550.031738 530.669312,548.464478 
	C541.560669,546.587158 548.822937,539.105164 549.882324,528.496277 
	C550.380737,523.504883 550.232361,518.549927 548.776489,513.654480 
	C547.090210,507.984436 548.742004,503.900391 553.206726,501.956940 
	C557.774353,499.968628 562.438660,501.862061 565.326843,506.877716 
	C568.299316,512.039795 568.324219,517.699097 568.069580,523.390808 
	C567.159180,543.741333 555.137390,558.992310 536.892395,562.978882 
	C514.625549,567.844360 491.684296,551.224731 488.927216,528.340027 
	C485.967743,503.775177 496.902679,485.944580 516.096436,472.180756 
	C520.524780,469.005127 524.899048,465.544647 530.398193,464.227295 
	C537.400146,462.549957 541.658997,465.220459 541.343567,472.255554 
	C540.536133,490.266724 542.514526,508.214966 541.946777,526.588501 
	C540.794678,528.066711 539.632446,527.375732 538.482239,527.132202 
	C539.470032,527.658569 540.893982,527.199280 541.726196,528.742126 
	C541.994568,533.849915 538.446289,532.440063 536.266724,531.837585 
	C532.082825,530.681152 529.697693,527.452759 528.918579,523.196289 
	C528.471436,520.753601 528.280701,518.263977 528.014893,515.355713 
	C526.884460,511.102661 527.687256,507.214569 527.777222,502.899231 
	C526.996765,500.321289 527.406311,498.060455 527.282715,495.478058 
	C527.450317,494.907806 527.574524,494.720306 527.885132,494.252014 
	C528.811401,490.657318 528.632996,487.333069 528.001343,483.736237 
	C527.492981,483.186859 527.171387,482.902222 526.661987,482.358124 
z"/>
<path fill="#89AA3B" opacity="1.000000" stroke="none" 
	d="
M635.034729,524.633240 
	C634.910339,525.429199 634.860596,525.872253 634.765320,526.646667 
	C635.142822,531.579163 636.462463,536.003357 637.573853,540.798828 
	C637.816528,541.520630 637.873047,541.949097 637.912170,542.702637 
	C638.074341,546.958191 639.021423,550.775879 639.619751,554.644287 
	C640.149475,558.069336 640.455505,561.447021 638.520752,565.033447 
	C638.333313,565.414551 638.337524,565.313477 638.388062,565.315918 
	C635.595886,567.058228 632.881287,567.249146 630.108398,564.365967 
	C629.819519,564.079041 629.895264,564.082703 629.893372,564.120605 
	C625.305908,557.667969 623.030945,550.219421 620.943054,542.332458 
	C620.693054,541.560730 620.484131,541.132812 620.230103,540.349121 
	C620.095154,539.542236 619.999084,539.092407 619.808350,538.310425 
	C619.534912,537.557556 619.350769,537.137878 619.172852,536.364380 
	C619.537903,533.469177 618.097351,531.245483 617.901855,528.795959 
	C617.817444,527.737671 617.105103,526.612610 616.225830,526.540466 
	C611.996277,526.193420 607.588440,524.429260 603.433838,527.950378 
	C600.691223,533.213745 600.195862,538.735657 599.540222,544.066467 
	C599.083008,547.784546 597.721069,550.988586 596.232788,554.628174 
	C595.834045,555.531921 595.714661,556.160522 595.552429,557.106567 
	C595.754822,557.783630 595.752197,558.141479 595.320190,558.736450 
	C592.586914,564.793213 588.543335,567.199158 583.641296,565.816345 
	C579.187744,564.560059 576.317871,560.029358 577.131470,554.295715 
	C578.249939,546.413757 579.838318,538.595825 581.343689,530.773193 
	C581.731384,528.758484 582.486389,527.728882 579.318115,526.800964 
	C575.297791,525.623535 571.657959,522.709534 571.703735,517.501099 
	C571.753601,511.820862 574.715820,507.261383 579.774902,506.167633 
	C586.702637,504.669891 587.763245,499.940125 588.927185,494.573059 
	C590.903198,485.462006 593.917725,476.690125 597.925659,468.274719 
	C599.424194,465.128296 601.048401,462.016479 604.100281,460.005310 
	C607.708008,457.627869 611.212769,457.512726 614.551453,460.522766 
	C615.044128,460.966949 615.410339,461.754395 615.962219,461.899475 
	C624.634827,464.179718 624.535278,471.308472 625.075073,478.560272 
	C627.825745,481.073517 625.252197,484.774841 627.793396,487.225098 
	C628.825745,488.939301 628.402466,490.523865 628.399048,492.378723 
	C628.766113,496.537994 629.214478,500.374451 629.831787,504.593018 
	C632.785645,506.303619 635.811707,507.231964 637.556458,510.137451 
	C640.546021,515.115906 640.025757,518.308044 635.034729,524.633240 
z"/>
<path fill="#88A93B" opacity="1.000000" stroke="none" 
	d="
M275.748352,464.220459 
	C279.529114,460.606598 283.573944,459.671570 287.800995,462.233002 
	C292.393463,465.015900 291.978119,469.246155 290.393829,473.668579 
	C288.003662,480.340607 283.261414,485.568970 279.641083,491.483582 
	C276.778931,496.159393 272.921997,500.058777 274.238373,506.694916 
	C274.992798,510.498077 271.698395,514.533020 267.511078,515.396912 
	C264.046692,516.111572 262.950165,518.342285 261.663208,520.758667 
	C255.190063,532.912476 248.802704,545.112000 242.343903,557.273560 
	C240.218170,561.276184 237.462570,564.079102 232.301529,564.023376 
	C225.561798,563.950500 222.677994,560.709351 224.170135,553.560669 
	C223.705872,549.110718 225.661484,545.507935 227.214264,542.095398 
	C228.435104,539.412354 229.290863,536.677063 230.342529,533.609497 
	C230.568924,532.126404 230.425659,530.964844 230.836334,529.583984 
	C232.020660,522.111267 237.432556,517.077148 240.383362,510.817505 
	C242.123657,507.125702 242.486908,505.572296 238.416046,503.353485 
	C227.955185,497.651794 217.966125,491.089630 207.561600,485.277588 
	C201.258240,481.756500 200.547958,476.113678 200.718063,470.067810 
	C200.805756,466.950500 202.743057,464.871399 206.231461,464.860535 
	C208.953598,464.852051 211.402588,465.756317 213.896072,466.761353 
	C226.391220,471.797607 238.459473,477.696747 249.875504,484.836792 
	C252.634354,486.562286 253.711777,485.918640 255.245422,483.472778 
	C259.565521,476.583160 264.059418,469.798126 268.651001,463.085541 
	C270.272491,460.714996 272.334686,459.311951 273.755920,463.691833 
	C271.678131,469.510193 267.334961,473.536102 264.467468,478.504364 
	C262.768829,481.447510 260.585632,484.093323 259.385132,486.282532 
	C263.178131,480.371460 267.578217,473.774689 272.179047,467.311707 
	C273.048035,466.090973 273.939026,464.895020 275.748352,464.220459 
z"/>
<path fill="#88A93B" opacity="1.000000" stroke="none" 
	d="
M293.946106,545.124878 
	C286.772461,520.867737 288.841888,497.746429 302.169159,476.738861 
	C306.827820,469.395477 313.713531,461.937561 324.668671,462.846741 
	C327.523010,463.083618 329.322144,464.493195 331.515839,466.177155 
	C341.782257,474.057983 343.864014,485.655670 345.840790,497.115173 
	C348.609009,513.162781 348.783264,529.281250 343.290405,544.904358 
	C337.992371,559.973389 323.773315,567.541077 309.798004,562.989685 
	C301.262329,560.209900 297.197571,553.224060 293.946106,545.124878 
z"/>
<path fill="#88A93B" opacity="1.000000" stroke="none" 
	d="
M443.231110,471.201843 
	C444.146179,472.409332 444.253632,472.475677 444.861542,471.491455 
	C448.895844,464.959625 455.111145,462.922058 462.336121,462.825989 
	C464.251923,462.800507 466.058319,463.085144 467.412872,464.470642 
	C472.294708,469.464233 477.420624,474.031006 479.597412,481.288239 
	C485.912964,502.343140 487.627716,523.403992 480.978943,544.612671 
	C478.122101,553.725586 468.000610,564.507385 456.992523,564.097961 
	C444.073822,563.617432 436.062744,558.688049 431.952362,546.087219 
	C424.696564,523.843872 426.476776,502.110718 436.965881,481.195831 
	C438.655518,477.826752 439.878937,474.106842 443.045593,471.485168 
	C443.254211,471.349243 443.126831,471.102356 443.231110,471.201843 
z"/>
<path fill="#89AA3B" opacity="1.000000" stroke="none" 
	d="
M771.912292,554.426208 
	C771.595337,553.270447 771.364197,552.542419 771.152710,551.424194 
	C770.908691,540.314209 770.760681,529.595581 771.364746,518.437622 
	C771.302429,516.580933 771.347473,515.171692 771.531067,513.361938 
	C772.071777,506.400452 772.842590,499.867157 773.039795,493.288635 
	C773.124939,490.449493 772.251221,488.786346 769.140137,489.008118 
	C765.660400,489.256165 762.243347,488.147186 758.373657,488.628998 
	C756.934265,488.749542 755.878662,488.771393 754.438416,488.697083 
	C752.750244,487.905945 750.839783,487.854492 751.049744,485.316315 
	C751.559021,484.414490 752.085388,484.083252 752.780640,484.052795 
	C752.546326,483.989044 752.291077,483.997040 752.083862,484.071808 
	C750.330811,484.704346 748.529114,483.897430 746.428833,484.358032 
	C745.846558,484.479065 745.606812,484.512573 745.006348,484.472717 
	C744.219299,484.143311 743.794861,483.884003 743.031860,483.452515 
	C740.410461,481.575775 738.590271,479.341003 736.967346,477.114929 
	C734.197144,473.314972 736.184937,468.583344 741.576660,465.744080 
	C742.382629,465.467987 742.832642,465.344910 743.634888,465.277649 
	C748.132080,465.701569 752.267029,465.873413 756.692505,464.634064 
	C757.556152,464.531189 758.060913,464.514038 758.965576,464.521240 
	C762.554810,464.040924 766.046570,466.953491 768.614624,463.441406 
	C768.240845,463.210144 768.728027,463.240387 768.824829,463.464417 
	C781.648193,463.238678 794.395020,463.225677 807.531128,461.840393 
	C808.724854,461.575745 809.469421,461.390076 810.598267,461.195801 
	C813.783081,460.962585 816.602356,461.141937 819.394714,460.866089 
	C821.307190,460.677185 822.723145,460.930542 822.904175,463.625793 
	C823.020447,464.002747 822.997131,464.013977 822.998657,464.001404 
	C825.243652,466.528992 826.045288,469.107300 823.224792,471.796997 
	C822.483032,472.504272 821.951172,473.373749 821.899963,474.394379 
	C821.572937,480.909180 817.266418,482.940796 811.330811,483.762878 
	C810.988953,483.973511 810.982727,484.012787 810.971558,483.996033 
	C806.526855,484.968781 801.974060,485.122009 797.509583,485.976410 
	C791.091187,487.204742 790.623596,487.651794 791.514160,494.746124 
	C791.730774,495.512054 791.764404,495.932922 791.736084,496.665497 
	C790.293396,507.863464 791.243286,518.781006 791.179871,529.686829 
	C791.135376,537.328247 793.248169,544.996948 790.716675,552.630310 
	C789.749268,555.547485 788.053040,557.943359 786.274841,560.288086 
	C782.889221,564.752319 777.379944,564.505127 774.214905,559.821655 
	C773.201050,558.321350 772.384766,556.666748 771.912292,554.426208 
z"/>
<path fill="#89AA3B" opacity="1.000000" stroke="none" 
	d="
M379.030090,488.623291 
	C379.285339,490.395691 379.519043,491.832397 379.718536,493.631897 
	C379.297791,497.483093 380.172455,500.899384 380.436646,504.697571 
	C380.682983,505.467712 380.769897,505.899963 380.822113,506.663452 
	C380.752228,516.070923 381.187408,525.124512 382.164124,534.554199 
	C382.443024,536.494446 382.652893,538.035950 382.874390,540.045654 
	C384.488373,542.439819 386.392944,541.313416 388.207672,541.032104 
	C390.260559,540.713928 392.203491,539.822449 394.645874,539.760254 
	C395.724945,539.504089 396.482361,539.339722 397.629761,539.203003 
	C402.655884,539.030518 407.298676,539.098267 411.932922,538.954346 
	C415.919891,538.830505 419.533447,539.521423 423.029633,542.333374 
	C423.302124,542.586853 423.160034,542.694641 423.234741,542.647949 
	C422.382599,543.419739 423.816589,543.165405 424.114197,543.788818 
	C424.444611,544.829651 424.600830,545.610840 424.657410,546.790405 
	C424.366577,548.555603 424.811523,549.668884 426.068237,550.789978 
	C426.457458,551.458984 426.667816,551.867981 426.875000,552.632446 
	C426.273285,554.447998 426.152893,556.063538 425.204651,557.745544 
	C424.996185,558.013306 424.990631,557.990662 425.001984,557.993530 
	C422.667480,559.682678 419.995331,559.089539 417.398376,559.121582 
	C408.536560,559.231079 399.626617,558.097290 390.438934,560.223694 
	C389.593475,560.475464 389.145416,560.619507 388.341675,560.757324 
	C382.269348,560.507263 376.885651,562.270386 371.435516,563.564819 
	C364.487762,565.214844 361.039612,562.414185 361.436096,555.320496 
	C361.593628,552.502502 361.500458,549.678833 361.368042,546.434326 
	C361.311737,543.194519 361.359222,540.377930 361.563416,536.938965 
	C361.538788,535.496643 361.357483,534.676514 361.189026,533.432251 
	C361.558868,528.186646 360.293457,523.517395 359.767212,518.401978 
	C359.497498,517.282715 359.326782,516.531006 359.178223,515.390625 
	C358.740356,509.892334 361.165924,504.705627 358.639160,499.298157 
	C359.065887,495.933716 357.806488,492.817596 359.135345,489.400391 
	C361.314606,484.005096 359.512024,478.954834 359.663422,473.502167 
	C359.749023,472.756531 359.805908,472.458405 359.938965,471.706116 
	C361.048889,464.200775 361.892456,463.505035 368.545532,464.786133 
	C368.953430,465.019501 368.983032,464.981232 368.989197,465.004639 
	C370.313049,465.630157 371.185883,466.812134 372.613953,467.848999 
	C372.994141,468.292877 373.116638,468.493988 373.327637,469.036316 
	C373.601257,471.948151 373.843994,474.505615 375.264435,477.150024 
	C376.626129,479.479523 377.826477,481.491699 377.638611,484.313416 
	C377.559753,486.063171 379.159271,486.847015 379.030090,488.623291 
z"/>
<path fill="#7D9346" opacity="1.000000" stroke="none" 
	d="
M361.164978,546.449890 
	C362.402924,549.049622 361.850037,552.213867 361.940216,555.327271 
	C362.116333,561.407288 364.642761,563.650818 370.737427,562.727844 
	C374.316742,562.185852 377.836273,561.250610 381.384369,560.500122 
	C383.342133,560.086182 385.302765,559.957581 387.623230,560.630859 
	C382.067169,561.836365 376.039490,562.481934 369.113403,565.143188 
	C374.164459,566.433044 377.756012,564.962280 381.309937,564.545166 
	C392.721863,563.205933 404.151917,562.528381 415.631378,562.647705 
	C417.119751,562.663147 419.581360,561.889099 419.621735,564.256897 
	C419.662262,566.630920 417.257843,566.041443 415.718658,565.958801 
	C401.408997,565.190308 387.155762,565.639771 372.960266,567.691589 
	C372.037598,567.824951 370.432770,567.853516 370.194336,567.390625 
	C367.878387,562.893555 358.511139,564.268555 360.794983,555.834839 
	C361.553497,553.033752 361.012543,549.880737 361.164978,546.449890 
z"/>
<path fill="#7D9346" opacity="1.000000" stroke="none" 
	d="
M368.661987,464.790405 
	C363.913910,464.108917 362.961792,467.645782 361.918884,471.622498 
	C359.725647,471.900787 359.313202,473.259796 359.638275,474.731903 
	C361.460052,482.982635 359.598724,491.397797 361.143097,499.844299 
	C361.645020,501.489868 362.013092,502.955658 362.016113,504.422211 
	C362.023468,507.987152 363.109802,511.877258 359.312805,514.755127 
	C357.909607,501.426086 356.695618,487.842346 355.302979,474.276917 
	C354.255646,464.074890 358.515411,460.836975 368.661987,464.790405 
z"/>
<path fill="#7D9346" opacity="1.000000" stroke="none" 
	d="
M771.824463,554.343872 
	C773.220215,556.045044 774.374268,558.319275 776.057068,560.091431 
	C779.698792,563.926575 783.678833,563.150330 785.987976,558.467896 
	C790.493591,549.331604 791.695862,539.864380 790.671997,529.651001 
	C789.606567,519.022522 788.908691,508.221161 791.444275,497.272156 
	C791.941772,515.538147 792.244507,534.098633 792.424561,552.660400 
	C792.443298,554.594238 792.430054,556.712341 791.254456,558.436096 
	C790.674927,559.285767 790.737915,562.217041 788.540222,559.547424 
	C788.061401,558.965881 787.517273,559.618103 786.985413,560.070618 
	C779.824768,566.162964 774.565430,564.445862 771.872375,555.183594 
	C771.826904,555.027222 771.837830,554.854431 771.824463,554.343872 
z"/>
<path fill="#7D9346" opacity="1.000000" stroke="none" 
	d="
M601.699341,526.583435 
	C604.626831,525.316833 607.402771,525.030579 610.243042,525.039368 
	C618.110535,525.063538 619.996521,527.146851 619.299561,535.666992 
	C618.842529,534.898438 618.278381,533.800598 618.207886,532.671875 
	C617.860779,527.113464 614.970215,525.756531 609.658386,526.182983 
	C605.758606,526.496033 604.378235,527.598694 603.568176,531.443726 
	C601.989197,538.938232 600.971985,546.490967 599.826904,554.440979 
	C599.663330,554.998291 599.608276,555.169739 599.283875,555.319702 
	C598.807129,555.293823 598.599609,555.289429 598.093262,555.198181 
	C596.080627,551.719360 597.230896,548.276001 597.776855,544.911926 
	C598.755798,538.880859 600.133789,532.920532 601.699341,526.583435 
z"/>
<path fill="#7D9346" opacity="1.000000" stroke="none" 
	d="
M675.714844,511.287872 
	C676.041870,510.536011 676.828247,510.339386 677.812012,510.989075 
	C678.850403,519.645325 679.808777,528.167664 680.635864,536.702698 
	C681.010254,540.565552 681.757019,544.513184 679.337097,549.270813 
	C678.548889,535.932983 678.234070,523.634521 675.714844,511.287872 
z"/>
<path fill="#7D9346" opacity="1.000000" stroke="none" 
	d="
M751.913818,484.758545 
	C752.586182,486.111084 753.179260,487.102875 753.912964,488.347778 
	C745.283447,489.033417 740.796753,482.809509 736.527405,476.790100 
	C733.547852,472.589172 735.779968,468.032471 741.603638,465.553009 
	C734.750916,472.057648 735.608276,478.201874 744.556580,481.750977 
	C744.935120,481.818817 744.991821,481.924622 744.998779,481.984222 
	C747.000244,483.645813 749.989502,482.362030 751.913818,484.758545 
z"/>
<path fill="#7D9346" opacity="1.000000" stroke="none" 
	d="
M767.889587,463.130096 
	C767.611450,469.822174 762.868103,466.280487 759.335022,466.538269 
	C755.613953,465.631622 752.136719,466.546539 748.789429,465.541504 
	C747.724976,465.221924 746.485962,465.481354 745.441528,464.162994 
	C744.997009,461.595398 746.701294,462.832123 747.408936,462.832001 
	C754.118713,462.830780 760.828552,462.959076 767.889587,463.130096 
z"/>
<path fill="#7D9346" opacity="1.000000" stroke="none" 
	d="
M758.416565,488.834778 
	C758.303772,488.628876 758.611145,488.488617 758.932678,488.437286 
	C772.671997,486.244629 774.468262,487.743530 773.313660,501.219818 
	C772.994019,504.950806 773.660461,508.822388 771.882874,512.692871 
	C771.846436,506.330566 771.926086,499.695129 772.243835,493.071106 
	C772.388245,490.061310 771.408997,488.878693 768.298218,489.078552 
	C765.162476,489.280060 761.996216,489.007019 758.416565,488.834778 
z"/>
<path fill="#7D9346" opacity="1.000000" stroke="none" 
	d="
M390.448547,560.366821 
	C393.406891,558.118835 397.252960,558.148499 401.035889,558.104736 
	C408.800110,558.015015 416.565918,558.058899 424.672180,558.022095 
	C423.130035,560.214600 420.552612,559.947388 418.129730,559.692322 
	C408.998932,558.731201 399.936310,559.795898 390.448547,560.366821 
z"/>
<path fill="#7D9346" opacity="1.000000" stroke="none" 
	d="
M771.161255,518.413574 
	C772.484070,528.737183 772.137817,539.493103 771.306152,550.642456 
	C770.125793,540.304932 770.732056,529.570435 771.161255,518.413574 
z"/>
<path fill="#7D9346" opacity="1.000000" stroke="none" 
	d="
M807.560059,461.682587 
	C803.817078,463.881744 799.173828,463.426300 794.803223,463.692841 
	C786.518250,464.198029 778.176697,463.774506 769.390137,463.712646 
	C771.762207,462.285706 774.787537,463.179840 777.722046,463.020416 
	C787.524719,462.487732 797.333435,462.067261 807.560059,461.682587 
z"/>
<path fill="#1F3106" opacity="1.000000" stroke="none" 
	d="
M275.642151,464.030579 
	C269.331390,471.930359 264.281311,481.036041 257.690796,489.062836 
	C261.756409,480.139374 267.517975,472.291992 273.426575,464.188171 
	C274.207245,464.013367 274.729034,464.025665 275.642151,464.030579 
z"/>
<path fill="#7D9346" opacity="1.000000" stroke="none" 
	d="
M379.114075,488.616089 
	C378.118744,487.950378 377.185822,486.941772 376.039185,485.660339 
	C375.655914,479.037415 372.599213,473.068665 373.637177,466.274414 
	C379.118835,472.583374 378.399933,480.604004 379.114075,488.616089 
z"/>
<path fill="#7D9346" opacity="1.000000" stroke="none" 
	d="
M230.899261,529.619446 
	C231.330154,530.407532 231.564590,531.462585 231.929749,532.817139 
	C230.469391,539.497070 226.976883,545.072937 224.191101,551.304688 
	C220.749695,551.260498 221.868622,549.396240 222.588806,547.789001 
	C225.268005,541.810059 227.994232,535.852234 230.899261,529.619446 
z"/>
<path fill="#7D9346" opacity="1.000000" stroke="none" 
	d="
M382.294861,534.527283 
	C379.055969,530.694519 381.037872,525.669312 380.305328,521.039673 
	C379.621277,516.716431 379.676758,512.182556 380.658875,507.383820 
	C381.310486,516.030334 381.833527,525.065979 382.294861,534.527283 
z"/>
<path fill="#1F3106" opacity="1.000000" stroke="none" 
	d="
M601.626831,526.397644 
	C600.883972,535.094421 597.831116,543.662231 597.745789,552.698425 
	C597.741089,553.196106 597.705688,553.693542 597.739380,554.651245 
	C597.385803,555.061707 596.977295,555.012024 596.261108,554.932861 
	C596.630127,545.252502 598.477234,535.823853 601.626831,526.397644 
z"/>
<path fill="#7D9346" opacity="1.000000" stroke="none" 
	d="
M635.252625,524.810791 
	C634.581177,523.947998 634.931030,523.081787 635.492249,522.191956 
	C640.023132,515.008606 639.398315,512.066528 632.359680,507.071564 
	C631.686584,506.593842 631.093628,506.003052 630.232056,505.219910 
	C640.586304,507.713562 643.093323,516.603027 635.252625,524.810791 
z"/>
<path fill="#7D9346" opacity="1.000000" stroke="none" 
	d="
M811.388794,483.999146 
	C812.161621,482.649658 813.746643,482.204285 815.396606,481.858307 
	C818.334106,481.242340 820.251282,479.363892 820.537659,476.470703 
	C820.938721,472.418060 825.298462,469.286499 823.087708,464.351715 
	C824.883545,464.654724 825.311890,466.280823 825.433289,467.962524 
	C825.876465,474.101532 818.106445,483.201477 811.388794,483.999146 
z"/>
<path fill="#7D9346" opacity="1.000000" stroke="none" 
	d="
M423.259094,542.192139 
	C415.607147,538.358215 406.971191,540.812683 398.407288,539.357483 
	C403.655212,538.516846 409.314545,538.538330 414.975952,538.713745 
	C418.044037,538.808716 420.904663,539.497192 423.259094,542.192139 
z"/>
<path fill="#7D9346" opacity="1.000000" stroke="none" 
	d="
M791.803711,494.652771 
	C789.039490,490.167725 789.872437,487.602020 794.822449,486.002655 
	C799.763794,484.406036 804.878601,483.881592 810.509399,483.958374 
	C807.039917,485.446655 802.902466,486.129364 798.800293,486.308563 
	C793.395813,486.544739 790.918335,488.706726 791.803711,494.652771 
z"/>
<path fill="#7D9346" opacity="1.000000" stroke="none" 
	d="
M620.868713,542.349609 
	C623.890015,549.119751 626.145752,556.553101 629.821167,563.794006 
	C624.742859,557.908508 622.562988,550.405090 620.868713,542.349609 
z"/>
<path fill="#7D9346" opacity="1.000000" stroke="none" 
	d="
M638.612915,565.182861 
	C639.624573,559.944641 638.909424,554.528198 637.944153,549.108032 
	C637.627136,547.328003 637.039917,545.540955 637.770508,543.364380 
	C639.279175,550.287659 642.258911,557.474976 638.612915,565.182861 
z"/>
<path fill="#1F3106" opacity="1.000000" stroke="none" 
	d="
M223.969620,551.966003 
	C225.668274,545.230530 228.983536,539.607178 231.921997,533.436279 
	C233.963394,534.492432 232.301239,535.782471 231.813904,536.913635 
	C229.531372,542.211731 227.088165,547.440613 224.470123,552.950317 
	C224.166046,552.933167 224.094208,552.659851 223.969620,551.966003 
z"/>
<path fill="#1F3106" opacity="1.000000" stroke="none" 
	d="
M373.778137,465.790283 
	C375.349823,472.072479 376.371643,478.234253 375.819763,484.971710 
	C375.238159,483.166107 374.650940,480.944733 373.979553,478.359375 
	C372.545990,475.358673 372.471558,472.503204 372.359680,469.259857 
	C372.257935,468.883026 372.515961,468.930603 372.539917,468.801636 
	C371.138214,468.660339 371.443787,467.612366 371.668488,466.385498 
	C372.486298,465.883026 373.055969,465.756317 373.778137,465.790283 
z"/>
<path fill="#7D9346" opacity="1.000000" stroke="none" 
	d="
M823.043579,463.629425 
	C819.982849,459.926941 815.323364,462.994080 811.348389,461.311340 
	C814.348999,460.839722 817.714111,460.480713 821.081970,460.148590 
	C823.750854,459.885468 824.318420,460.998199 823.043579,463.629425 
z"/>
<path fill="#7D9346" opacity="1.000000" stroke="none" 
	d="
M359.637115,518.447571 
	C361.840851,522.576965 362.315094,527.332642 361.327576,532.632080 
	C360.669922,528.292297 360.137970,523.576538 359.637115,518.447571 
z"/>
<path fill="#7D9346" opacity="1.000000" stroke="none" 
	d="
M637.764160,540.685059 
	C635.196167,536.872620 634.495239,532.193420 634.547363,527.174561 
	C635.735962,531.411377 636.752197,535.844604 637.764160,540.685059 
z"/>
<path fill="#7D9346" opacity="1.000000" stroke="none" 
	d="
M756.864624,466.005615 
	C752.771301,468.900116 748.640564,466.988464 744.231567,465.585815 
	C744.148743,465.267090 744.310364,465.200745 744.729126,465.084259 
	C748.934509,463.887909 752.720520,466.006897 756.864624,466.005615 
z"/>
<path fill="#7D9346" opacity="1.000000" stroke="none" 
	d="
M394.583374,539.592896 
	C391.122986,541.236877 387.346527,543.385010 382.965820,540.791382 
	C386.815308,541.978394 390.379852,539.301819 394.583374,539.592896 
z"/>
<path fill="#7D9346" opacity="1.000000" stroke="none" 
	d="
M628.384216,492.295227 
	C627.905212,491.291321 627.492737,489.881073 626.919250,488.191223 
	C625.672607,485.266235 625.802917,482.564392 626.649414,479.469666 
	C627.054504,478.331299 627.193420,477.564911 627.332397,476.798523 
	C627.482971,476.801025 627.633545,476.803528 627.784119,476.806030 
	C628.006348,481.833649 628.228577,486.861298 628.384216,492.295227 
z"/>
<path fill="#1F3106" opacity="1.000000" stroke="none" 
	d="
M757.406860,466.362030 
	C753.325073,466.034210 749.552185,465.669861 745.382812,465.169800 
	C745.031677,464.841125 745.077087,464.648193 745.171021,464.162109 
	C749.885437,464.333435 754.551453,464.795410 759.215515,465.276886 
	C759.327942,465.288513 759.486450,465.510895 759.498840,465.646332 
	C759.510986,465.779083 759.363586,465.926361 759.120483,466.239685 
	C758.541748,466.383270 758.128784,466.354401 757.406860,466.362030 
z"/>
<path fill="#7D9346" opacity="1.000000" stroke="none" 
	d="
M526.631409,482.543396 
	C526.704407,481.970093 526.958069,481.902161 527.365601,481.917786 
	C530.468811,485.733368 528.538086,490.282471 529.063538,494.721313 
	C528.408508,495.083191 528.100037,495.106598 527.558105,495.103149 
	C527.148621,491.057678 526.971252,487.020020 526.631409,482.543396 
z"/>
<path fill="#7D9346" opacity="1.000000" stroke="none" 
	d="
M380.632019,504.605408 
	C378.083466,501.846558 379.123810,498.251678 379.552063,494.368286 
	C380.012238,497.388245 380.340118,500.781799 380.632019,504.605408 
z"/>
<path fill="#1F3106" opacity="1.000000" stroke="none" 
	d="
M626.617432,479.089661 
	C626.810913,481.744537 626.706238,484.391388 626.679932,487.474915 
	C625.130676,485.436798 625.010193,482.637604 625.072388,479.403412 
	C625.526428,479.024078 625.922913,479.052856 626.617432,479.089661 
z"/>
<path fill="#7D9346" opacity="1.000000" stroke="none" 
	d="
M629.931030,564.379456 
	C632.318054,565.241211 634.831116,566.319946 638.061279,565.384766 
	C635.357056,568.825989 632.670532,567.138062 629.931030,564.379456 
z"/>
<path fill="#7D9346" opacity="1.000000" stroke="none" 
	d="
M527.783020,502.848450 
	C528.009399,506.290253 528.081360,510.141632 528.104370,514.454468 
	C527.913086,511.029938 527.770874,507.143982 527.783020,502.848450 
z"/>
<path fill="#1F3106" opacity="1.000000" stroke="none" 
	d="
M541.902954,528.682251 
	C539.982117,527.261963 536.974548,528.859558 534.994507,526.489380 
	C534.747009,525.872253 534.686462,525.566101 535.070557,525.406250 
	C537.402771,526.008423 539.081970,527.246216 541.506592,527.013489 
	C541.890930,527.430237 541.911316,527.885803 541.902954,528.682251 
z"/>
<path fill="#7D9346" opacity="1.000000" stroke="none" 
	d="
M371.643188,465.844696 
	C372.105469,466.669434 372.294281,467.329102 372.523499,468.330688 
	C370.975830,468.179199 370.089844,466.948975 369.161438,465.308533 
	C369.786865,465.245209 370.578308,465.462402 371.643188,465.844696 
z"/>
<path fill="#7D9346" opacity="1.000000" stroke="none" 
	d="
M687.743164,513.178101 
	C689.328308,514.168335 690.043274,516.038452 690.767944,518.303467 
	C689.843445,516.933838 688.832886,515.214722 687.743164,513.178101 
z"/>
<path fill="#7D9346" opacity="1.000000" stroke="none" 
	d="
M425.307739,557.842896 
	C425.499878,556.527283 426.003601,555.041260 426.689575,553.271545 
	C427.351776,554.789368 426.589935,556.258850 425.307739,557.842896 
z"/>
<path fill="#7D9346" opacity="1.000000" stroke="none" 
	d="
M426.173523,550.756287 
	C424.598785,550.504211 424.005310,549.366272 424.460449,547.441528 
	C425.071808,548.280029 425.585846,549.371338 426.173523,550.756287 
z"/>
<path fill="#7D9346" opacity="1.000000" stroke="none" 
	d="
M693.015259,523.341431 
	C694.088623,524.145630 694.741516,525.494629 695.078247,527.346802 
	C694.414368,526.338379 693.717529,525.004150 693.015259,523.341431 
z"/>
<path fill="#7D9346" opacity="1.000000" stroke="none" 
	d="
M683.290161,511.712708 
	C683.782227,510.474060 684.735962,510.204987 685.953430,511.554077 
	C685.290405,511.785797 684.484497,511.808289 683.290161,511.712708 
z"/>
<path fill="#7D9346" opacity="1.000000" stroke="none" 
	d="
M619.739624,538.237183 
	C619.922607,538.529053 620.126160,539.080811 620.257324,539.812988 
	C620.043396,539.494629 619.901794,538.995911 619.739624,538.237183 
z"/>
<path fill="#7D9346" opacity="1.000000" stroke="none" 
	d="
M675.004517,518.640869 
	C674.836548,518.176453 674.718872,517.334534 674.702026,516.247437 
	C674.886841,516.755981 674.970825,517.509644 675.004517,518.640869 
z"/>
<path fill="#7D9346" opacity="1.000000" stroke="none" 
	d="
M690.973389,519.296021 
	C691.252380,519.483643 691.553711,519.957764 691.926147,520.704468 
	C691.663330,520.512268 691.329468,520.047485 690.973389,519.296021 
z"/>
<path fill="#7D9346" opacity="1.000000" stroke="none" 
	d="
M424.257782,543.820435 
	C424.037262,543.679871 423.786133,543.311340 423.493286,542.718140 
	C423.710083,542.859802 423.968628,543.226135 424.257782,543.820435 
z"/>
<path fill="#88A93B" opacity="1.000000" stroke="none" 
	d="
M443.390381,471.564972 
	C443.522644,471.414246 443.671265,471.237030 443.790527,471.041840 
	C443.800354,471.025726 443.610596,470.887726 443.513611,470.806335 
	C443.396393,471.003693 443.279205,471.201019 443.312378,471.473297 
	C443.462799,471.548248 443.399170,471.533813 443.390381,471.564972 
z"/>
<path fill="#7D9346" opacity="1.000000" stroke="none" 
	d="
M692.003784,521.294556 
	C692.293152,521.479858 692.582886,521.950745 692.936279,522.691040 
	C692.668030,522.500366 692.336182,522.040222 692.003784,521.294556 
z"/>
<path fill="#7D9346" opacity="1.000000" stroke="none" 
	d="
M361.656830,536.405518 
	C361.720093,536.316711 361.809570,536.598755 361.768738,536.632446 
	C361.727875,536.666077 361.593567,536.494324 361.656830,536.405518 
z"/>
<path fill="#1F3106" opacity="1.000000" stroke="none" 
	d="
M599.140137,555.319214 
	C599.014587,555.298218 599.310547,554.976074 599.514526,554.901428 
	C599.695984,555.105835 599.545105,555.276978 599.140137,555.319214 
z"/>
<path fill="#7D9346" opacity="1.000000" stroke="none" 
	d="
M686.823914,512.044189 
	C686.805542,512.089661 686.697083,512.038147 686.687500,512.010742 
	C686.677979,511.983398 686.842285,511.998657 686.823914,512.044189 
z"/>
<path fill="#1F3106" opacity="1.000000" stroke="none" 
	d="
M595.257690,558.733032 
	C595.153748,558.609863 595.168823,558.244263 595.346680,557.651367 
	C595.465271,557.779541 595.421021,558.135132 595.257690,558.733032 
z"/>
<path fill="#040702" opacity="1.000000" stroke="none" 
	d="
M692.868713,489.166718 
	C696.711731,491.482239 700.226807,493.629059 704.069519,495.975952 
	C697.128723,496.795654 692.085999,495.653717 687.074890,492.525421 
	C683.615295,490.365692 680.121338,488.320740 676.320618,492.169922 
	C674.601990,493.910522 673.659363,493.050568 672.922913,490.880493 
	C671.828979,487.656921 672.955872,483.380554 668.751282,481.498016 
	C668.478882,481.376038 668.246216,480.480194 668.414551,480.178497 
	C669.106812,478.938110 670.164001,479.746307 671.001892,479.980225 
	C678.553833,482.088379 685.738953,485.089783 692.868713,489.166718 
z"/>
<path fill="#1F3106" opacity="1.000000" stroke="none" 
	d="
M528.872803,495.275879 
	C528.361938,490.972107 528.008301,486.903412 527.577881,482.384827 
	C528.479614,480.868988 529.826965,478.852783 529.952271,482.239594 
	C530.116089,486.668335 529.827332,491.113953 529.717163,495.551880 
	C529.714844,495.646057 529.494934,495.826569 529.415833,495.807129 
	C529.271667,495.771698 529.156982,495.616333 528.872803,495.275879 
z"/>
<path fill="#1F3106" opacity="1.000000" stroke="none" 
	d="
M534.984619,526.022034 
	C533.802612,525.540100 532.527954,524.467163 533.352356,523.548767 
	C534.027893,522.796265 534.576965,524.534607 535.381226,525.320801 
	C535.515198,525.552551 535.161560,525.865723 534.984619,526.022034 
z"/>
<path fill="#040702" opacity="1.000000" stroke="none" 
	d="
M605.395142,500.317078 
	C606.751465,495.480408 607.982178,491.024658 609.508911,485.497345 
	C612.024353,492.172485 612.149658,498.255859 612.422241,504.123352 
	C612.564941,507.195953 608.752136,505.518219 606.741760,505.964325 
	C604.912537,506.370178 604.416870,505.296387 604.758301,503.642578 
	C604.959595,502.667450 605.101135,501.679962 605.395142,500.317078 
z"/>
<path fill="#040702" opacity="1.000000" stroke="none" 
	d="
M318.797028,481.643433 
	C320.898224,478.003082 322.467255,478.199738 323.618744,481.779114 
	C330.154327,502.094543 332.962341,522.605347 326.429108,543.499634 
	C325.121094,547.682800 323.425720,551.813965 317.980865,551.995728 
	C313.505310,552.145203 309.192230,548.744812 306.892059,543.112122 
	C313.084442,544.403931 312.848969,541.213074 311.921082,536.723572 
	C308.951965,522.358032 308.735687,507.993103 313.162384,493.408020 
	C313.525848,492.949890 313.761719,492.865784 314.296143,493.005920 
	C316.035919,496.251160 314.250763,499.083313 313.897522,501.945435 
	C312.726776,511.431702 312.559326,520.863708 314.042145,529.126587 
	C312.677643,523.640320 312.834961,516.874390 313.060455,510.143066 
	C313.250824,504.461700 314.910950,498.907043 314.926880,492.824768 
	C314.869446,492.223236 314.852234,491.982574 314.909668,491.387817 
	C315.151123,490.581451 315.350616,490.144104 315.807526,489.439209 
	C316.893463,486.746124 317.571930,484.273773 318.797028,481.643433 
z"/>
<path fill="#1F3106" opacity="1.000000" stroke="none" 
	d="
M314.908447,492.902588 
	C314.366669,493.034851 314.151581,493.055847 313.613220,493.055420 
	C314.440033,488.979187 315.233337,484.762115 318.781647,481.528381 
	C319.049255,484.204163 318.574371,486.910828 317.079102,489.737671 
	C316.719421,490.216034 316.576721,490.394257 316.213989,490.834839 
	C315.993896,491.097198 315.972931,490.981720 316.030670,490.971191 
	C315.492798,491.425842 315.537659,492.189545 314.908447,492.902588 
z"/>
<path fill="#040702" opacity="1.000000" stroke="none" 
	d="
M457.718048,479.279968 
	C461.180206,478.277740 460.786102,481.277435 461.475525,482.726837 
	C465.178558,490.511841 465.773041,499.030029 466.802429,507.421265 
	C468.250153,519.222717 468.330292,530.938416 464.442810,542.400696 
	C462.975677,546.726501 461.643890,551.349487 456.255341,551.909058 
	C450.251404,552.532532 447.202728,548.239807 443.702087,542.990784 
	C451.392426,544.605225 450.175476,540.726257 449.327789,536.356628 
	C446.474701,521.650024 446.355865,506.974976 450.918152,492.094543 
	C451.179840,491.611237 451.437714,491.537720 452.054382,491.641693 
	C452.554413,492.043396 452.695587,492.267639 452.894409,492.882446 
	C450.652649,505.674011 450.338348,518.126038 451.423523,528.489441 
	C450.174316,522.429688 450.568024,514.054260 451.247803,505.876038 
	C451.938690,497.563324 452.540924,489.003693 456.399963,481.253479 
	C456.697296,480.656372 457.061859,480.101349 457.718048,479.279968 
z"/>
<path fill="#7D9346" opacity="1.000000" stroke="none" 
	d="
M457.664490,479.131958 
	C450.819611,498.283325 450.737701,518.190552 452.812927,538.314636 
	C448.897064,523.245544 449.094879,508.146210 452.195068,492.599182 
	C452.452911,491.928741 452.462250,491.713531 452.255096,491.550446 
	C452.046875,491.386536 451.875275,491.478851 451.556213,491.629486 
	C451.369568,491.434937 451.147797,491.564819 451.034912,491.624817 
	C452.136047,487.065460 453.425171,482.484985 457.664490,479.131958 
z"/>
<path fill="#1F3106" opacity="1.000000" stroke="none" 
	d="
M752.393127,485.085632 
	C749.822754,484.259277 747.652466,483.399261 745.243896,482.291534 
	C749.663940,482.120361 753.921448,484.397491 758.579651,485.051910 
	C756.650818,485.051910 754.721985,485.051910 752.393127,485.085632 
z"/>
<path fill="#1F3106" opacity="1.000000" stroke="none" 
	d="
M744.864990,481.932098 
	C744.935120,481.818817 744.975769,481.807922 744.968018,481.791473 
	C744.960266,481.775024 744.627808,481.815704 744.627808,481.815704 
	C744.627808,481.815704 744.794800,482.045380 744.864990,481.932098 
z"/>
<path fill="#1F3106" opacity="1.000000" stroke="none" 
	d="
M361.386902,499.568542 
	C358.767914,497.500763 360.122833,494.135071 359.738464,491.183044 
	C358.905609,484.785919 358.489807,478.333405 357.954224,471.899292 
	C357.734436,469.258881 358.014435,466.839233 361.442474,466.364319 
	C362.411377,467.935242 361.556305,469.561676 361.683594,471.540466 
	C361.719238,471.943878 361.677399,472.211182 361.744293,472.328796 
	C361.107941,477.657379 361.715363,482.896912 361.355865,488.565247 
	C361.271210,492.379517 361.301025,495.746460 361.386902,499.568542 
z"/>
<path fill="#7D9346" opacity="1.000000" stroke="none" 
	d="
M361.357300,488.619507 
	C361.038788,483.751373 360.391815,478.487488 361.574524,472.839844 
	C361.826691,477.709137 362.373413,482.983276 361.357300,488.619507 
z"/>
<path fill="#7D9346" opacity="1.000000" stroke="none" 
	d="
M372.224976,469.311951 
	C372.819672,471.653595 373.381409,474.424194 373.919250,477.595093 
	C371.533905,475.614044 372.151184,472.617950 372.224976,469.311951 
z"/>
<path fill="#000000" opacity="1.000000" stroke="none" 
	d="
M788.092102,558.584961 
	C788.057495,557.862122 788.255310,557.340637 788.453125,556.819153 
	C789.093140,557.519470 788.976990,558.170410 788.092102,558.584961 
z"/>
<path fill="#7D9346" opacity="1.000000" stroke="none" 
	d="
M314.500793,493.438416 
	C314.928680,492.410767 315.275604,491.807678 315.855469,491.082642 
	C316.048553,498.459717 314.138428,505.771545 314.040955,513.294250 
	C313.935455,521.438049 314.938568,529.485535 315.752869,538.314209 
	C311.819275,531.204712 310.739807,510.671600 314.500793,493.438416 
z"/>
<path fill="#7D9346" opacity="1.000000" stroke="none" 
	d="
M316.283783,491.109070 
	C316.126282,490.806854 316.258667,490.516510 316.626587,490.131989 
	C316.765961,490.398865 316.669830,490.759888 316.283783,491.109070 
z"/>
<path fill="#040702" opacity="1.000000" stroke="none" 
	d="
M451.583618,491.625488 
	C451.716217,490.721466 451.522827,489.627960 452.721375,489.514008 
	C452.702118,490.247772 452.682831,490.981567 452.446594,491.954041 
	C452.085663,492.067230 451.941681,491.941650 451.583618,491.625488 
z"/>
</svg>